<svg width="100" height="100" viewBox="0 0 100 100" fill="none" xmlns="http://www.w3.org/2000/svg">
<rect width="100" height="100" fill="white"/>
<path fill-rule="evenodd" clip-rule="evenodd" d="M41.1615 39.6686C44.7785 41.1965 50.6482 43.6769 60.2305 47.6978C60.7286 47.9064 61.2927 47.9068 61.7905 47.6974L65.5653 46.106C66.121 45.8715 66.5128 45.3231 66.5128 44.6838V29.686C66.5128 28.8646 65.8412 28.2785 65.0164 28.3338C64.2756 28.3834 66.8742 27.4178 41.1651 38.2099C40.5167 38.4821 40.5135 39.3948 41.1615 39.6686Z" fill="#086CFF"/>
<path fill-rule="evenodd" clip-rule="evenodd" d="M64.2132 71.5161L34.4355 58.9788C33.8786 58.7444 33.4872 58.1968 33.4872 57.5582V42.752C33.4872 41.9 34.1832 41.2098 35.0428 41.2098C35.6373 41.2098 33.6091 40.5192 65.4881 53.8739C66.1342 54.1012 66.5643 54.7918 66.5064 55.3676L66.508 55.3699L66.4692 70.1281C66.4692 70.9801 65.7728 71.6703 64.9132 71.6703C64.5002 71.6703 64.2799 71.5229 64.1888 71.4939" fill="#086CFF"/>
</svg>
