<svg width="276" height="63" viewBox="0 0 276 63" fill="none" xmlns="http://www.w3.org/2000/svg">
<path fill-rule="evenodd" clip-rule="evenodd" d="M9.80085 14.3099C14.0158 16.101 20.8553 19.0092 32.0224 23.723C32.6025 23.9678 33.2597 23.9686 33.8398 23.7222L38.2385 21.8573C38.8864 21.5829 39.3429 20.9393 39.3429 20.189V2.6067C39.3429 1.64294 38.5603 0.95527 37.5991 1.02133C36.7361 1.07892 39.7638 -0.0533744 9.80508 12.5991C9.04965 12.9184 9.04542 13.9889 9.80085 14.3099Z" fill="white"/>
<path fill-rule="evenodd" clip-rule="evenodd" d="M36.665 51.6483L1.96456 36.9497C1.31585 36.6744 0.859375 36.0333 0.859375 35.2847V17.9251C0.859375 16.9258 1.67069 16.117 2.67256 16.117C3.36532 16.117 1.0025 15.3074 38.1504 30.9638C38.9042 31.2306 39.4047 32.0411 39.3369 32.7161L39.3395 32.7178L39.2937 50.0214C39.2937 51.0207 38.4824 51.8295 37.4805 51.8295C36.9995 51.8295 36.7429 51.6567 36.637 51.6229" fill="white"/>
<path fill-rule="evenodd" clip-rule="evenodd" d="M245.492 16.2619C245.88 16.2619 246.195 15.9477 246.195 15.5599V11.7938C246.195 11.4059 245.88 11.0908 245.492 11.0908H241.999V4.31742C241.999 3.9287 241.685 3.6145 241.297 3.6145H235.507C235.119 3.6145 234.805 3.9287 234.805 4.31742V28.3479C234.805 29.8443 235.009 31.2705 235.423 32.6188C235.83 33.9687 236.498 35.1493 237.412 36.1604C238.332 37.1725 239.505 37.9813 240.924 38.5783C242.351 39.1754 244.08 39.4769 246.103 39.4769H246.195V33.7908C246.195 33.4309 245.924 33.1303 245.566 33.0922C244.4 32.9685 243.54 32.5019 242.976 31.6923C242.323 30.737 241.999 29.3803 241.999 27.6162V16.2619H245.492Z" fill="white"/>
<path fill-rule="evenodd" clip-rule="evenodd" d="M104.93 33.5251C106.766 33.5251 108.265 32.7493 109.428 31.1953C110.589 29.6421 111.171 27.6299 111.171 25.1587C111.171 19.4693 109.071 16.6246 104.873 16.6246C100.788 16.6246 98.7452 19.62 98.7452 25.6084C98.7452 27.967 99.3364 29.875 100.516 31.335C101.697 32.7959 103.168 33.5251 104.93 33.5251ZM91.8295 38.0449V1.71763C91.8295 1.32976 92.1446 1.01556 92.5324 1.01556H98.3243C98.7122 1.01556 99.0264 1.32976 99.0264 1.71763V14.7157C101.087 11.8346 103.824 10.3932 107.235 10.3932C109.034 10.3932 110.636 10.7395 112.042 11.4314C113.448 12.1242 114.637 13.1074 115.613 14.3795C116.587 15.6523 117.328 17.1581 117.832 18.8985C118.339 20.6397 118.592 22.5579 118.592 24.6539C118.592 26.9753 118.291 29.0527 117.693 30.8862C117.093 32.7205 116.267 34.2746 115.219 35.5466C114.169 36.8195 112.904 37.7926 111.424 38.4658C109.942 39.14 108.34 39.4762 106.617 39.4762C103.168 39.4762 100.601 38.111 98.9138 35.3781L98.8689 38.0568C98.8629 38.4404 98.5496 38.747 98.1668 38.747H92.5324C92.1446 38.747 91.8295 38.4328 91.8295 38.0449Z" fill="white"/>
<path fill-rule="evenodd" clip-rule="evenodd" d="M121.459 38.0449V11.8244C121.459 11.4365 121.774 11.1223 122.162 11.1223H128.065C128.453 11.1223 128.767 11.4365 128.767 11.8244V38.0449C128.767 38.4328 128.453 38.747 128.065 38.747H122.162C121.774 38.747 121.459 38.4328 121.459 38.0449ZM121.459 7.10808V1.71763C121.459 1.32976 121.774 1.01556 122.162 1.01556H128.065C128.453 1.01556 128.767 1.32976 128.767 1.71763V7.10808C128.767 7.49596 128.453 7.81015 128.065 7.81015H122.162C121.774 7.81015 121.459 7.49596 121.459 7.10808Z" fill="white"/>
<path fill-rule="evenodd" clip-rule="evenodd" d="M156.17 28.7536C156.612 28.7536 156.941 29.1575 156.862 29.592C156.629 30.8742 156.211 32.0539 155.61 33.1328C154.879 34.443 153.951 35.5659 152.826 36.5009C151.702 37.4376 150.418 38.1667 148.975 38.6909C147.532 39.2152 145.967 39.4769 144.28 39.4769C142.406 39.4769 140.691 39.1686 139.136 38.5512C137.58 37.933 136.241 36.998 135.116 35.7438C133.992 34.4895 133.121 32.9355 132.502 31.0833C131.883 29.2295 131.574 27.0691 131.574 24.5987C131.574 22.1283 131.883 19.9942 132.502 18.1971C133.121 16.4008 133.992 14.9323 135.116 13.7899C136.241 12.6483 137.599 11.7971 139.193 11.2348C140.785 10.6733 142.556 10.393 144.506 10.393C146.305 10.393 147.944 10.6369 149.425 11.123C150.905 11.61 152.199 12.3214 153.305 13.2563C154.409 14.193 155.281 15.316 155.919 16.6253C156.448 17.7144 156.796 18.9059 156.963 20.2C157.018 20.6243 156.694 21.0054 156.265 21.0054H150.267C149.942 21.0054 149.654 20.7818 149.585 20.4651C149.334 19.298 148.795 18.3639 147.963 17.6644C147.008 16.8598 145.835 16.4567 144.449 16.4567C143.662 16.4567 142.932 16.5888 142.257 16.8497C141.582 17.1122 140.992 17.5518 140.485 18.1691C139.98 18.7865 139.577 19.6105 139.277 20.6404C138.976 21.6702 138.826 22.9329 138.826 24.4302C138.826 27.462 139.37 29.708 140.457 31.168C141.544 32.6272 142.8 33.3572 144.224 33.3572C145.648 33.3572 146.867 32.9643 147.879 32.1784C148.761 31.4924 149.316 30.5371 149.543 29.3108C149.604 28.9848 149.897 28.7536 150.228 28.7536H156.17Z" fill="white"/>
<path fill-rule="evenodd" clip-rule="evenodd" d="M159.126 38.0441V11.8244C159.126 11.4366 159.44 11.1224 159.828 11.1224H165.282C165.67 11.1224 165.985 11.4374 165.985 11.8253V14.4354C166.584 13.5004 167.212 12.7696 167.869 12.2453C168.523 11.722 169.198 11.3188 169.892 11.0377C170.586 10.7574 171.288 10.5804 172.001 10.505C172.712 10.4305 173.443 10.3932 174.193 10.3932H174.447C174.834 10.3932 175.149 10.7074 175.149 11.0953V17.0582C175.149 17.4673 174.8 17.8001 174.392 17.7577C173.871 17.7027 173.349 17.6824 172.827 17.6959C169.251 17.7831 166.434 20.7955 166.434 24.3728V38.0441C166.434 38.432 166.12 38.747 165.731 38.747H159.828C159.441 38.747 159.126 38.432 159.126 38.0441Z" fill="white"/>
<path fill-rule="evenodd" clip-rule="evenodd" d="M194.771 35.0974C194.245 36.333 193.299 37.2968 191.931 37.9895C190.563 38.6823 189.018 39.0278 187.292 39.0278C185.832 39.0278 184.482 38.7932 183.245 38.3266C182.009 37.8583 180.94 37.1841 180.041 36.3051C179.14 35.426 178.437 34.3767 177.933 33.1606C177.426 31.9444 177.173 30.5682 177.173 29.0337V11.8249C177.173 11.437 177.487 11.122 177.876 11.122H183.78C184.167 11.122 184.482 11.437 184.482 11.8249V27.9666C184.482 31.4109 186.037 33.1326 189.149 33.1326C190.836 33.1326 192.193 32.6457 193.225 31.6726C194.255 30.6995 194.771 29.4647 194.771 27.9666V11.8249C194.771 11.437 195.086 11.122 195.474 11.122H201.377C201.766 11.122 202.08 11.437 202.08 11.8249V39.4767C202.08 41.4228 201.751 43.1632 201.096 44.6986C200.44 46.2331 199.54 47.5247 198.397 48.5731C197.254 49.6199 195.904 50.4261 194.35 50.9876C192.794 51.5491 191.135 51.8294 189.373 51.8294C185.288 51.8294 182.233 50.7996 180.209 48.7408C178.322 46.8217 177.314 44.2336 177.187 40.9799C177.171 40.5869 177.496 40.2634 177.89 40.2634H183.304C183.664 40.2634 183.972 40.5361 184.001 40.8944C184.11 42.2434 184.58 43.3241 185.41 44.1371C186.366 45.0721 187.8 45.5404 189.711 45.5404C190.385 45.5404 191.022 45.4007 191.623 45.1195C192.221 44.8392 192.756 44.4462 193.225 43.9406C193.693 43.435 194.068 42.8075 194.35 42.0605C194.631 41.3102 194.771 40.487 194.771 39.5893V35.0974Z" fill="white"/>
<path fill-rule="evenodd" clip-rule="evenodd" d="M218.442 33.2448C222.64 33.2448 224.74 30.4009 224.74 24.7107C224.74 22.2395 224.158 20.2281 222.997 18.6741C221.834 17.1217 220.335 16.3443 218.499 16.3443C216.736 16.3443 215.266 17.0734 214.085 18.5343C212.904 19.9944 212.314 21.9024 212.314 24.2618C212.314 30.2502 214.357 33.2448 218.442 33.2448ZM205.398 51.1269V11.8244C205.398 11.4366 205.713 11.1224 206.101 11.1224H211.736C212.118 11.1224 212.431 11.4289 212.438 11.8126L212.482 14.4904C214.169 11.7592 216.736 10.3932 220.186 10.3932C221.909 10.3932 223.511 10.7294 224.992 11.4035C226.472 12.0768 227.737 13.0507 228.788 14.3228C229.836 15.5956 230.661 17.1497 231.261 18.9832C231.86 20.8175 232.161 22.895 232.161 25.2154C232.161 27.3123 231.908 29.2297 231.401 30.97C230.896 32.7113 230.155 34.2179 229.181 35.4899C228.206 36.7628 227.016 37.7452 225.61 38.4388C224.205 39.1298 222.603 39.4762 220.804 39.4762C217.393 39.4762 214.656 38.0365 212.595 35.1537V51.1269C212.595 51.5147 212.281 51.8289 211.892 51.8289H206.101C205.713 51.8289 205.398 51.5147 205.398 51.1269Z" fill="white"/>
<path fill-rule="evenodd" clip-rule="evenodd" d="M260.944 33.3564C265.404 33.3564 267.634 30.5498 267.634 24.9349C267.634 19.3582 265.404 16.5694 260.944 16.5694C256.483 16.5694 254.254 19.3582 254.254 24.9349C254.254 30.5498 256.483 33.3564 260.944 33.3564ZM260.944 39.4769C258.695 39.4769 256.689 39.1212 254.928 38.4106C253.166 37.7001 251.676 36.7075 250.459 35.4338C249.24 34.1626 248.313 32.6272 247.676 30.8301C247.038 29.0339 246.72 27.0682 246.72 24.9349C246.72 22.7644 247.047 20.7792 247.704 18.983C248.359 17.1859 249.305 15.6522 250.543 14.3793C251.78 13.1073 253.27 12.1249 255.012 11.4313C256.755 10.7394 258.732 10.393 260.944 10.393C263.118 10.393 265.067 10.7394 266.792 11.4313C268.514 12.1249 269.986 13.0971 271.205 14.3514C272.423 15.6056 273.36 17.13 274.016 18.9271C274.671 20.7234 275 22.7262 275 24.9349C275 27.1436 274.671 29.1372 274.016 30.914C273.36 32.6933 272.423 34.2185 271.205 35.4906C269.986 36.7626 268.506 37.7458 266.764 38.4386C265.02 39.1296 263.08 39.4769 260.944 39.4769Z" fill="white"/>
<path fill-rule="evenodd" clip-rule="evenodd" d="M82.5681 19.4886C82.2421 19.4886 81.9567 19.2625 81.8864 18.9449C81.6526 17.8829 81.1979 17.1198 80.5212 16.6532C79.7344 16.1112 78.4971 15.8385 76.811 15.8385C75.4238 15.8385 74.355 16.0172 73.6055 16.372C72.856 16.7277 72.4817 17.318 72.4817 18.1403C72.4817 18.9652 72.856 19.5919 73.6055 20.0221C74.355 20.4523 75.4797 20.8741 76.9795 21.2857C78.553 21.7337 80.052 22.1368 81.4765 22.4925C82.9018 22.849 84.156 23.2318 85.2443 23.6426C86.706 24.2422 87.8298 25.0569 88.6174 26.0859C89.4051 27.1157 89.798 28.5283 89.798 30.3245C89.798 33.2073 88.7767 35.4541 86.734 37.0624C84.6904 38.6723 81.6831 39.4769 77.7104 39.4769C73.437 39.4769 70.1663 38.5783 67.8992 36.7821C65.8454 35.1552 64.692 33.115 64.4362 30.6599C64.393 30.2424 64.7182 29.8757 65.1383 29.8757H71.2672C71.6178 29.8757 71.9117 30.1365 71.9583 30.4837C72.0946 31.5034 72.5875 32.3113 73.437 32.9075C74.449 33.6198 75.8548 33.9738 77.6536 33.9738C78.9655 33.9738 80.1079 33.7595 81.0835 33.3284C82.0761 32.8906 82.5639 32.1318 82.5453 31.0512C82.5292 30.1467 81.9363 29.3565 81.1132 28.9822C80.2561 28.5918 79.2526 28.2539 78.1042 27.9668C75.7795 27.4053 73.9053 26.8997 72.4817 26.4509C71.0564 26.0012 69.8572 25.4592 68.8832 24.8223C67.5706 23.9991 66.6627 23.0642 66.1563 22.0149C65.6507 20.9673 65.3974 19.8248 65.3974 18.5892C65.3974 17.4298 65.6024 16.3441 66.0157 15.3338C66.4281 14.3226 67.1022 13.4528 68.0397 12.7228C68.9764 11.9919 70.1849 11.4228 71.6661 11.0095C73.1465 10.5988 74.936 10.393 77.0354 10.393C81.0463 10.393 83.9977 11.1603 85.8905 12.6948C87.6113 14.0905 88.6276 16.0892 88.9384 18.6925C88.9892 19.1143 88.664 19.4886 88.2397 19.4886H82.5681Z" fill="white"/>
<path d="M227.38 62.3517L228.318 57.6412C228.92 58.5856 229.947 59.0579 231.4 59.0579C232.379 59.0579 233.271 58.8188 234.074 58.3407C234.876 57.8626 235.511 57.2014 235.977 56.3573C236.444 55.5132 236.677 54.5658 236.677 53.5151C236.677 52.6415 236.491 51.883 236.119 51.2396C235.747 50.5962 235.245 50.1033 234.614 49.7609C233.982 49.4185 233.294 49.2474 232.551 49.2474C231.394 49.2474 230.42 49.6074 229.629 50.3276L229.823 49.389H227.203L224.617 62.3517H227.38ZM231.081 56.7735C230.396 56.7735 229.865 56.5846 229.487 56.2068C229.109 55.829 228.92 55.3155 228.92 54.6662C228.92 54.0523 229.038 53.5092 229.275 53.037C229.511 52.5648 229.841 52.1958 230.266 51.9302C230.691 51.6646 231.169 51.5318 231.701 51.5318C232.385 51.5318 232.92 51.7206 233.303 52.0984C233.687 52.4762 233.879 52.9898 233.879 53.6391C233.879 54.253 233.761 54.796 233.525 55.2683C233.288 55.7405 232.958 56.1094 232.533 56.375C232.108 56.6407 231.624 56.7735 231.081 56.7735ZM242.503 59.0579C243.601 59.0579 244.589 58.8159 245.469 58.3318C246.348 57.8478 247.033 57.1867 247.523 56.3485C248.013 55.5103 248.258 54.5658 248.258 53.5151C248.258 52.6651 248.06 51.9184 247.665 51.275C247.269 50.6316 246.712 50.1328 245.991 49.7786C245.271 49.4244 244.427 49.2474 243.459 49.2474C242.361 49.2474 241.375 49.4894 240.502 49.9734C239.628 50.4574 238.943 51.1186 238.448 51.9568C237.952 52.795 237.704 53.7394 237.704 54.7901C237.704 55.6401 237.902 56.3868 238.297 57.0303C238.693 57.6737 239.253 58.1725 239.979 58.5266C240.705 58.8808 241.547 59.0579 242.503 59.0579ZM242.68 56.7735C241.995 56.7735 241.461 56.5846 241.077 56.2068C240.694 55.829 240.502 55.3155 240.502 54.6662C240.502 54.0523 240.62 53.5092 240.856 53.037C241.092 52.5648 241.423 52.1958 241.848 51.9302C242.273 51.6646 242.757 51.5318 243.3 51.5318C243.984 51.5318 244.516 51.7206 244.893 52.0984C245.271 52.4762 245.46 52.9898 245.46 53.6391C245.46 54.253 245.342 54.796 245.106 55.2683C244.87 55.7405 244.539 56.1094 244.114 56.375C243.689 56.6407 243.211 56.7735 242.68 56.7735ZM254.084 59.0579C255.182 59.0579 256.171 58.8159 257.05 58.3318C257.93 57.8478 258.615 57.1867 259.105 56.3485C259.594 55.5103 259.839 54.5658 259.839 53.5151C259.839 52.6651 259.642 51.9184 259.246 51.275C258.851 50.6316 258.293 50.1328 257.573 49.7786C256.853 49.4244 256.008 49.2474 255.04 49.2474C253.942 49.2474 252.957 49.4894 252.083 49.9734C251.209 50.4574 250.525 51.1186 250.029 51.9568C249.533 52.795 249.285 53.7394 249.285 54.7901C249.285 55.6401 249.483 56.3868 249.878 57.0303C250.274 57.6737 250.835 58.1725 251.561 58.5266C252.287 58.8808 253.128 59.0579 254.084 59.0579ZM254.261 56.7735C253.577 56.7735 253.042 56.5846 252.659 56.2068C252.275 55.829 252.083 55.3155 252.083 54.6662C252.083 54.0523 252.201 53.5092 252.437 53.037C252.673 52.5648 253.004 52.1958 253.429 51.9302C253.854 51.6646 254.338 51.5318 254.881 51.5318C255.566 51.5318 256.097 51.7206 256.475 52.0984C256.853 52.4762 257.041 52.9898 257.041 53.6391C257.041 54.253 256.923 54.796 256.687 55.2683C256.451 55.7405 256.121 56.1094 255.696 56.375C255.271 56.6407 254.792 56.7735 254.261 56.7735ZM263.452 58.9162L266.073 45.7765H263.31L260.689 58.9162H263.452Z" fill="white"/>
</svg>
