<svg width="162" height="110" viewBox="0 0 162 110" fill="none" xmlns="http://www.w3.org/2000/svg">
<path fill-rule="evenodd" clip-rule="evenodd" d="M139.225 76.1947C139.521 76.1947 139.762 75.954 139.762 75.6575V72.7787C139.762 72.4817 139.521 72.2414 139.225 72.2414H136.555V67.0632C136.555 66.7666 136.314 66.5264 136.018 66.5264H131.592C131.295 66.5264 131.055 66.7666 131.055 67.0632V85.4333C131.055 86.5774 131.21 87.6678 131.527 88.6989C131.839 89.7304 132.349 90.6326 133.047 91.4062C133.751 92.1794 134.648 92.7975 135.733 93.2539C136.824 93.7104 138.145 93.9416 139.692 93.9416H139.762V89.5942C139.762 89.32 139.555 89.0892 139.282 89.0604C138.391 88.9658 137.733 88.6091 137.302 87.9902C136.802 87.2595 136.555 86.2228 136.555 84.8745V76.1947H139.225Z" fill="white"/>
<path fill-rule="evenodd" clip-rule="evenodd" d="M31.7727 89.3921C33.1764 89.3921 34.3227 88.7985 35.2111 87.6106C36.0986 86.4235 36.5434 84.8852 36.5434 82.9967C36.5434 78.6471 34.9381 76.4723 31.7292 76.4723C28.6063 76.4723 27.0449 78.7623 27.0449 83.3401C27.0449 85.1427 27.4961 86.6023 28.3983 87.7176C29.3013 88.8338 30.4252 89.3921 31.7727 89.3921ZM21.7579 92.8473V65.0766C21.7579 64.78 21.9986 64.5402 22.2951 64.5402H26.7225C27.0191 64.5402 27.2598 64.78 27.2598 65.0766V75.0131C28.835 72.81 30.9268 71.7079 33.5348 71.7079C34.9102 71.7079 36.1347 71.9731 37.2092 72.5022C38.2837 73.0322 39.1936 73.783 39.9389 74.7557C40.6833 75.7287 41.2498 76.8802 41.6362 78.2108C42.0234 79.5415 42.2168 81.008 42.2168 82.6103C42.2168 84.3849 41.9873 85.973 41.5287 87.3746C41.0705 88.7771 40.4396 89.9646 39.638 90.9372C38.8356 91.9103 37.8685 92.6538 36.7369 93.1692C35.6043 93.6841 34.3794 93.9415 33.0621 93.9415C30.4252 93.9415 28.4632 92.8975 27.1738 90.8083L27.1394 92.8563C27.1342 93.149 26.8953 93.3837 26.6022 93.3837H22.2951C21.9986 93.3837 21.7579 93.1434 21.7579 92.8473Z" fill="white"/>
<path fill-rule="evenodd" clip-rule="evenodd" d="M44.4089 92.8471V72.8024C44.4089 72.5059 44.6496 72.266 44.9461 72.266H49.459C49.7556 72.266 49.9963 72.5059 49.9963 72.8024V92.8471C49.9963 93.1432 49.7556 93.3839 49.459 93.3839H44.9461C44.6496 93.3839 44.4089 93.1432 44.4089 92.8471ZM44.4089 69.1973V65.0763C44.4089 64.7802 44.6496 64.5399 44.9461 64.5399H49.459C49.7556 64.5399 49.9963 64.7802 49.9963 65.0763V69.1973C49.9963 69.4934 49.7556 69.7337 49.459 69.7337H44.9461C44.6496 69.7337 44.4089 69.4934 44.4089 69.1973Z" fill="white"/>
<path fill-rule="evenodd" clip-rule="evenodd" d="M70.9462 85.7435C71.2845 85.7435 71.5363 86.0526 71.4757 86.3848C71.2969 87.3647 70.978 88.2669 70.5181 89.0912C69.9594 90.0931 69.2502 90.9519 68.3906 91.6666C67.531 92.3822 66.5494 92.9401 65.4465 93.3407C64.3432 93.7413 63.1471 93.9415 61.8577 93.9415C60.4247 93.9415 59.1138 93.7056 57.925 93.2337C56.7357 92.7613 55.7115 92.0466 54.8519 91.0877C53.9923 90.1288 53.3261 88.9408 52.8529 87.5251C52.3806 86.1084 52.1442 84.4558 52.1442 82.5669C52.1442 80.6787 52.3806 79.0477 52.8529 77.674C53.3261 76.3008 53.9923 75.1777 54.8519 74.3048C55.7115 73.4319 56.7499 72.7807 57.968 72.3518C59.1856 71.9224 60.539 71.7079 62.0296 71.7079C63.4049 71.7079 64.6578 71.8945 65.7903 72.2658C66.922 72.638 67.9105 73.1822 68.7555 73.8969C69.6005 74.6125 70.2667 75.4709 70.7545 76.4723C71.159 77.3048 71.4255 78.2156 71.5531 79.2054C71.5952 79.5295 71.3472 79.82 71.0197 79.82H66.4337C66.1849 79.82 65.9648 79.6498 65.9128 79.407C65.7211 78.5151 65.3081 77.8017 64.6724 77.2666C63.9422 76.6515 63.0461 76.3433 61.9862 76.3433C61.3849 76.3433 60.8261 76.4439 60.3104 76.6442C59.7946 76.8445 59.3433 77.1806 58.9565 77.6525C58.5697 78.1249 58.2611 78.7545 58.0324 79.5411C57.8025 80.3285 57.6882 81.2942 57.6882 82.4384C57.6882 84.7563 58.1033 86.4729 58.935 87.5891C59.7654 88.7053 60.7256 89.2627 61.8147 89.2627C62.9029 89.2627 63.8347 88.9627 64.6084 88.3614C65.2832 87.8379 65.707 87.1073 65.8806 86.1699C65.9266 85.9206 66.1505 85.7435 66.4045 85.7435H70.9462Z" fill="white"/>
<path fill-rule="evenodd" clip-rule="evenodd" d="M73.2036 92.8464V72.8022C73.2036 72.5061 73.4438 72.2658 73.7404 72.2658H77.9099C78.2069 72.2658 78.4471 72.5065 78.4471 72.8031V74.7986C78.9053 74.0835 79.3854 73.5256 79.8874 73.1241C80.3881 72.724 80.9039 72.4163 81.4342 72.2014C81.9642 71.9869 82.5014 71.8515 83.046 71.7939C83.5901 71.7367 84.1489 71.7079 84.7226 71.7079H84.9156C85.2122 71.7079 85.4529 71.9486 85.4529 72.2452V76.8032C85.4529 77.1161 85.186 77.3706 84.8748 77.3383C84.4759 77.2966 84.0771 77.2807 83.6782 77.2906C80.9438 77.3577 78.791 79.6605 78.791 82.3958V92.8464C78.791 93.143 78.5503 93.3836 78.2537 93.3836H73.7408C73.4442 93.3836 73.2036 93.143 73.2036 92.8464Z" fill="white"/>
<path fill-rule="evenodd" clip-rule="evenodd" d="M100.453 90.5937C100.051 91.538 99.3283 92.2751 98.2822 92.8046C97.2365 93.3342 96.0545 93.5981 94.7363 93.5981C93.6193 93.5981 92.5873 93.4193 91.6422 93.0617C90.6967 92.7041 89.8796 92.1892 89.1924 91.5165C88.5042 90.8443 87.967 90.0427 87.5806 89.1127C87.1933 88.1834 86.9999 87.1317 86.9999 85.9583V72.8022C86.9999 72.506 87.2406 72.2658 87.5372 72.2658H92.0501C92.3471 72.2658 92.5873 72.506 92.5873 72.8022V85.1426C92.5873 87.7755 93.7762 89.0912 96.1551 89.0912C97.4445 89.0912 98.4825 88.7198 99.2712 87.9754C100.059 87.2314 100.453 86.2876 100.453 85.1426V72.8022C100.453 72.506 100.694 72.2658 100.99 72.2658H105.503C105.8 72.2658 106.041 72.506 106.041 72.8022V93.9415C106.041 95.429 105.789 96.7597 105.288 97.9334C104.786 99.1064 104.099 100.094 103.225 100.895C102.351 101.695 101.32 102.311 100.131 102.741C98.9411 103.17 97.6732 103.384 96.3266 103.384C93.2037 103.384 90.8681 102.597 89.3213 101.024C87.8785 99.5559 87.1082 97.578 87.0107 95.0903C86.9991 94.7903 87.2475 94.5428 87.5484 94.5428H91.6873C91.9628 94.5428 92.1975 94.7512 92.2199 95.0254C92.3032 96.0561 92.6621 96.8826 93.2969 97.5041C94.0276 98.2193 95.1236 98.5769 96.5849 98.5769C97.1003 98.5769 97.5872 98.4698 98.0458 98.2549C98.504 98.0405 98.9123 97.7405 99.2712 97.3541C99.6288 96.9677 99.9159 96.488 100.131 95.9164C100.346 95.343 100.453 94.7138 100.453 94.0274V90.5937Z" fill="white"/>
<path fill-rule="evenodd" clip-rule="evenodd" d="M118.547 89.1773C121.756 89.1773 123.361 87.0029 123.361 82.6529C123.361 80.7644 122.917 79.2266 122.029 78.039C121.14 76.8519 119.994 76.2575 118.591 76.2575C117.243 76.2575 116.119 76.8158 115.216 77.9316C114.314 79.0478 113.863 80.5069 113.863 82.3095C113.863 86.8882 115.424 89.1773 118.547 89.1773ZM108.576 102.848V72.8023C108.576 72.5058 108.817 72.266 109.113 72.266H113.42C113.713 72.266 113.952 72.5006 113.957 72.7933L113.991 74.8413C115.281 72.7529 117.243 71.7076 119.88 71.7076C121.197 71.7076 122.422 71.9655 123.554 72.4804C124.686 72.9957 125.653 73.7402 126.456 74.7124C127.258 75.6854 127.888 76.8734 128.347 78.275C128.805 79.6774 129.034 81.2655 129.034 83.0393C129.034 84.6421 128.841 86.1081 128.454 87.4388C128.067 88.7694 127.501 89.9217 126.757 90.8944C126.011 91.867 125.102 92.6183 124.027 93.1474C122.953 93.6765 121.728 93.9412 120.352 93.9412C117.745 93.9412 115.653 92.8401 114.078 90.6365V102.848C114.078 103.144 113.837 103.384 113.54 103.384H109.113C108.817 103.384 108.576 103.144 108.576 102.848Z" fill="white"/>
<path fill-rule="evenodd" clip-rule="evenodd" d="M151.04 89.263C154.45 89.263 156.155 87.117 156.155 82.825C156.155 78.5613 154.45 76.4295 151.04 76.4295C147.63 76.4295 145.926 78.5613 145.926 82.825C145.926 87.117 147.63 89.263 151.04 89.263ZM151.04 93.9413C149.321 93.9413 147.788 93.6693 146.441 93.1264C145.094 92.5832 143.955 91.8241 143.025 90.8511C142.093 89.8789 141.384 88.7051 140.897 87.3314C140.409 85.9582 140.166 84.4556 140.166 82.825C140.166 81.1655 140.417 79.6483 140.918 78.2751C141.419 76.9015 142.143 75.7285 143.089 74.7555C144.034 73.7828 145.174 73.032 146.506 72.502C147.838 71.9729 149.349 71.7077 151.04 71.7077C152.702 71.7077 154.192 71.9729 155.51 72.502C156.828 73.032 157.953 73.7755 158.884 74.734C159.815 75.6929 160.531 76.8585 161.033 78.2321C161.534 79.6058 161.785 81.1367 161.785 82.825C161.785 84.5137 161.534 86.0373 161.033 87.3959C160.531 88.7554 159.815 89.9218 158.884 90.894C157.953 91.8671 156.821 92.6184 155.489 93.1475C154.156 93.6766 152.673 93.9413 151.04 93.9413Z" fill="white"/>
<path fill-rule="evenodd" clip-rule="evenodd" d="M14.6776 78.6615C14.4287 78.6615 14.2099 78.4891 14.1566 78.2459C13.9778 77.4344 13.6301 76.8507 13.1127 76.494C12.5114 76.0793 11.5658 75.8717 10.2764 75.8717C9.21609 75.8717 8.39947 76.0079 7.82654 76.2795C7.25319 76.5512 6.96694 77.002 6.96694 77.6313C6.96694 78.2609 7.25319 78.7406 7.82654 79.0694C8.39947 79.3982 9.25907 79.7201 10.4053 80.0351C11.6084 80.3785 12.7542 80.6859 13.8438 80.9575C14.9324 81.23 15.8917 81.5231 16.7234 81.8373C17.8405 82.2955 18.7001 82.9178 19.3022 83.7048C19.9039 84.4917 20.2044 85.5718 20.2044 86.945C20.2044 89.1491 19.4239 90.8661 17.8624 92.0958C16.3001 93.3267 14.0011 93.9413 10.9637 93.9413C7.6976 93.9413 5.19702 93.2549 3.46407 91.8813C1.894 90.6379 1.01205 89.0781 0.816495 87.2016C0.7834 86.8823 1.03225 86.6021 1.35332 86.6021H6.03814C6.30634 86.6021 6.53112 86.8015 6.5668 87.0671C6.67124 87.8463 7.04817 88.4635 7.6976 88.9195C8.47124 89.4637 9.54574 89.7353 10.9211 89.7353C11.9238 89.7353 12.7972 89.5707 13.5425 89.2415C14.3015 88.9066 14.6741 88.3264 14.6599 87.5008C14.6479 86.8092 14.1945 86.2058 13.5652 85.9191C12.9102 85.6208 12.143 85.3621 11.2649 85.1425C9.48815 84.7135 8.05563 84.3271 6.96694 83.9833C5.8774 83.6403 4.96106 83.2255 4.21622 82.739C3.21263 82.1098 2.51851 81.3942 2.13168 80.593C1.74486 79.7919 1.55145 78.9189 1.55145 77.9742C1.55145 77.088 1.70833 76.2576 2.02423 75.4848C2.33928 74.7125 2.85461 74.0471 3.57152 73.4893C4.28713 72.931 5.21164 72.4951 6.3433 72.1797C7.47497 71.8655 8.84345 71.7077 10.4483 71.7077C13.5141 71.7077 15.7705 72.2949 17.2177 73.4678C18.5329 74.535 19.3095 76.0633 19.5481 78.0529C19.5863 78.3748 19.3375 78.6615 19.013 78.6615H14.6776Z" fill="white"/>
<path d="M126.242 108.849L127.017 104.962C127.513 105.741 128.361 106.131 129.559 106.131C130.368 106.131 131.103 105.934 131.766 105.539C132.428 105.145 132.952 104.599 133.337 103.903C133.722 103.206 133.914 102.424 133.914 101.557C133.914 100.836 133.761 100.21 133.454 99.6794C133.147 99.1484 132.733 98.7417 132.212 98.4592C131.69 98.1766 131.123 98.0354 130.509 98.0354C129.554 98.0354 128.751 98.3325 128.098 98.9268L128.259 98.1523H126.096L123.962 108.849H126.242ZM129.296 104.246C128.731 104.246 128.293 104.09 127.981 103.778C127.669 103.467 127.513 103.043 127.513 102.507C127.513 102 127.611 101.552 127.806 101.163C128 100.773 128.273 100.468 128.624 100.249C128.975 100.03 129.369 99.9205 129.808 99.9205C130.373 99.9205 130.814 100.076 131.13 100.388C131.447 100.7 131.605 101.124 131.605 101.659C131.605 102.166 131.508 102.614 131.313 103.004C131.118 103.394 130.845 103.698 130.494 103.917C130.144 104.136 129.744 104.246 129.296 104.246ZM138.722 106.131C139.628 106.131 140.444 105.931 141.169 105.532C141.895 105.133 142.46 104.587 142.865 103.895C143.269 103.204 143.471 102.424 143.471 101.557C143.471 100.856 143.308 100.24 142.981 99.7086C142.655 99.1776 142.195 98.766 141.601 98.4738C141.006 98.1815 140.31 98.0354 139.511 98.0354C138.605 98.0354 137.791 98.2351 137.07 98.6345C136.349 99.0339 135.784 99.5795 135.375 100.271C134.966 100.963 134.762 101.742 134.762 102.609C134.762 103.311 134.925 103.927 135.251 104.458C135.577 104.989 136.04 105.4 136.639 105.693C137.238 105.985 137.933 106.131 138.722 106.131ZM138.868 104.246C138.303 104.246 137.862 104.09 137.545 103.778C137.229 103.467 137.07 103.043 137.07 102.507C137.07 102 137.168 101.552 137.363 101.163C137.558 100.773 137.83 100.468 138.181 100.249C138.532 100.03 138.931 99.9205 139.379 99.9205C139.944 99.9205 140.383 100.076 140.694 100.388C141.006 100.7 141.162 101.124 141.162 101.659C141.162 102.166 141.065 102.614 140.87 103.004C140.675 103.394 140.402 103.698 140.052 103.917C139.701 104.136 139.306 104.246 138.868 104.246ZM148.279 106.131C149.185 106.131 150.001 105.931 150.726 105.532C151.452 105.133 152.017 104.587 152.422 103.895C152.826 103.204 153.028 102.424 153.028 101.557C153.028 100.856 152.865 100.24 152.539 99.7086C152.212 99.1776 151.752 98.766 151.158 98.4738C150.563 98.1815 149.867 98.0354 149.068 98.0354C148.162 98.0354 147.348 98.2351 146.627 98.6345C145.907 99.0339 145.341 99.5795 144.932 100.271C144.523 100.963 144.319 101.742 144.319 102.609C144.319 103.311 144.482 103.927 144.808 104.458C145.134 104.989 145.597 105.4 146.196 105.693C146.796 105.985 147.49 106.131 148.279 106.131ZM148.425 104.246C147.86 104.246 147.419 104.09 147.102 103.778C146.786 103.467 146.627 103.043 146.627 102.507C146.627 102 146.725 101.552 146.92 101.163C147.115 100.773 147.387 100.468 147.738 100.249C148.089 100.03 148.488 99.9205 148.936 99.9205C149.501 99.9205 149.94 100.076 150.252 100.388C150.563 100.7 150.719 101.124 150.719 101.659C150.719 102.166 150.622 102.614 150.427 103.004C150.232 103.394 149.959 103.698 149.609 103.917C149.258 104.136 148.863 104.246 148.425 104.246ZM156.009 106.014L158.172 95.1712H155.892L153.729 106.014H156.009Z" fill="white"/>
<path fill-rule="evenodd" clip-rule="evenodd" d="M71.7976 13.0169C75.686 14.6694 81.9963 17.3523 92.2978 21.7014C92.8333 21.9271 93.4397 21.9275 93.9748 21.701L98.033 19.9796C98.6304 19.7261 99.0517 19.1329 99.0517 18.4414V2.21941C99.0517 1.33101 98.3296 0.697057 97.4429 0.7568C96.6465 0.810525 99.4402 -0.233891 71.8014 11.4391C71.1043 11.7335 71.1008 12.7207 71.7976 13.0169Z" fill="white"/>
<path fill-rule="evenodd" clip-rule="evenodd" d="M96.5793 47.4638L64.5665 33.9032C63.9678 33.6496 63.547 33.0573 63.547 32.3666V16.3518C63.547 15.4303 64.2953 14.6838 65.2194 14.6838C65.8585 14.6838 63.6781 13.9368 97.95 28.3815C98.6445 28.6274 99.107 29.3743 99.0447 29.9971L99.0464 29.9997L99.0047 45.9625C99.0047 46.884 98.256 47.6306 97.3319 47.6306C96.8879 47.6306 96.6511 47.4711 96.5531 47.4397" fill="white"/>
</svg>
