<svg width="162" height="110" viewBox="0 0 162 110" fill="none" xmlns="http://www.w3.org/2000/svg">
<path fill-rule="evenodd" clip-rule="evenodd" d="M139.21 76.1947C139.507 76.1947 139.748 75.954 139.748 75.6575V72.7787C139.748 72.4817 139.507 72.2414 139.21 72.2414H136.541V67.0632C136.541 66.7666 136.3 66.5264 136.004 66.5264H131.578C131.281 66.5264 131.041 66.7666 131.041 67.0632V85.4333C131.041 86.5774 131.196 87.6678 131.513 88.6989C131.825 89.7304 132.335 90.6326 133.033 91.4062C133.737 92.1794 134.634 92.7975 135.719 93.2539C136.809 93.7104 138.131 93.9416 139.678 93.9416H139.748V89.5942C139.748 89.32 139.541 89.0892 139.268 89.0604C138.376 88.9658 137.718 88.6091 137.287 87.9902C136.788 87.2595 136.541 86.2228 136.541 84.8745V76.1947H139.21Z" fill="black"/>
<path fill-rule="evenodd" clip-rule="evenodd" d="M31.7584 89.3921C33.1622 89.3921 34.3084 88.7985 35.1968 87.6106C36.0844 86.4235 36.5292 84.8852 36.5292 82.9967C36.5292 78.6471 34.9239 76.4723 31.715 76.4723C28.5921 76.4723 27.0306 78.7623 27.0306 83.3401C27.0306 85.1427 27.4819 86.6023 28.3841 87.7176C29.2871 88.8338 30.411 89.3921 31.7584 89.3921ZM21.7437 92.8473V65.0766C21.7437 64.78 21.9843 64.5402 22.2809 64.5402H26.7083C27.0048 64.5402 27.2455 64.78 27.2455 65.0766V75.0131C28.8207 72.81 30.9126 71.7079 33.5206 71.7079C34.896 71.7079 36.1205 71.9731 37.195 72.5022C38.2695 73.0322 39.1794 73.783 39.9247 74.7557C40.6691 75.7287 41.2355 76.8802 41.6219 78.2108C42.0092 79.5415 42.2026 81.008 42.2026 82.6103C42.2026 84.3849 41.9731 85.973 41.5145 87.3746C41.0563 88.7771 40.4254 89.9646 39.6238 90.9372C38.8214 91.9103 37.8543 92.6538 36.7226 93.1692C35.5901 93.6841 34.3652 93.9415 33.0478 93.9415C30.411 93.9415 28.449 92.8975 27.1596 90.8083L27.1252 92.8563C27.12 93.149 26.8811 93.3837 26.5879 93.3837H22.2809C21.9843 93.3837 21.7437 93.1434 21.7437 92.8473Z" fill="#086CFF"/>
<path fill-rule="evenodd" clip-rule="evenodd" d="M44.3947 92.8471V72.8024C44.3947 72.5059 44.6353 72.266 44.9319 72.266H49.4448C49.7414 72.266 49.9821 72.5059 49.9821 72.8024V92.8471C49.9821 93.1432 49.7414 93.3839 49.4448 93.3839H44.9319C44.6353 93.3839 44.3947 93.1432 44.3947 92.8471ZM44.3947 69.1973V65.0763C44.3947 64.7802 44.6353 64.5399 44.9319 64.5399H49.4448C49.7414 64.5399 49.9821 64.7802 49.9821 65.0763V69.1973C49.9821 69.4934 49.7414 69.7337 49.4448 69.7337H44.9319C44.6353 69.7337 44.3947 69.4934 44.3947 69.1973Z" fill="#086CFF"/>
<path fill-rule="evenodd" clip-rule="evenodd" d="M70.932 85.7435C71.2703 85.7435 71.5221 86.0526 71.4615 86.3848C71.2827 87.3647 70.9638 88.2669 70.5039 89.0912C69.9452 90.0931 69.236 90.9519 68.3764 91.6666C67.5168 92.3822 66.5351 92.9401 65.4323 93.3407C64.329 93.7413 63.1328 93.9415 61.8434 93.9415C60.4105 93.9415 59.0996 93.7056 57.9108 93.2337C56.7215 92.7613 55.6973 92.0466 54.8377 91.0877C53.9781 90.1288 53.3119 88.9408 52.8387 87.5251C52.3663 86.1084 52.1299 84.4558 52.1299 82.5669C52.1299 80.6787 52.3663 79.0477 52.8387 77.674C53.3119 76.3008 53.9781 75.1777 54.8377 74.3048C55.6973 73.4319 56.7357 72.7807 57.9537 72.3518C59.1714 71.9224 60.5248 71.7079 62.0154 71.7079C63.3907 71.7079 64.6436 71.8945 65.7761 72.2658C66.9078 72.638 67.8963 73.1822 68.7413 73.8969C69.5863 74.6125 70.2525 75.4709 70.7403 76.4723C71.1448 77.3048 71.4112 78.2156 71.5389 79.2054C71.581 79.5295 71.333 79.82 71.0055 79.82H66.4195C66.1707 79.82 65.9506 79.6498 65.8986 79.407C65.7069 78.5151 65.2939 77.8017 64.6582 77.2666C63.928 76.6515 63.0318 76.3433 61.9719 76.3433C61.3707 76.3433 60.8119 76.4439 60.2962 76.6442C59.7804 76.8445 59.3291 77.1806 58.9423 77.6525C58.5555 78.1249 58.2469 78.7545 58.0182 79.5411C57.7883 80.3285 57.6739 81.2942 57.6739 82.4384C57.6739 84.7563 58.0891 86.4729 58.9208 87.5891C59.7512 88.7053 60.7113 89.2627 61.8005 89.2627C62.8887 89.2627 63.8205 88.9627 64.5942 88.3614C65.2689 87.8379 65.6927 87.1073 65.8664 86.1699C65.9124 85.9206 66.1363 85.7435 66.3903 85.7435H70.932Z" fill="black"/>
<path fill-rule="evenodd" clip-rule="evenodd" d="M73.1893 92.8464V72.8022C73.1893 72.5061 73.4296 72.2658 73.7262 72.2658H77.8956C78.1926 72.2658 78.4329 72.5065 78.4329 72.8031V74.7986C78.8911 74.0835 79.3712 73.5256 79.8732 73.1241C80.3739 72.724 80.8896 72.4163 81.42 72.2014C81.95 71.9869 82.4872 71.8515 83.0318 71.7939C83.5759 71.7367 84.1346 71.7079 84.7084 71.7079H84.9014C85.198 71.7079 85.4386 71.9486 85.4386 72.2452V76.8032C85.4386 77.1161 85.1717 77.3706 84.8606 77.3383C84.4617 77.2966 84.0629 77.2807 83.664 77.2906C80.9296 77.3577 78.7767 79.6605 78.7767 82.3958V92.8464C78.7767 93.143 78.536 93.3836 78.2395 93.3836H73.7266C73.43 93.3836 73.1893 93.143 73.1893 92.8464Z" fill="black"/>
<path fill-rule="evenodd" clip-rule="evenodd" d="M100.439 90.5937C100.037 91.538 99.3141 92.2751 98.268 92.8046C97.2223 93.3342 96.0403 93.5981 94.7221 93.5981C93.6051 93.5981 92.5731 93.4193 91.628 93.0617C90.6824 92.7041 89.8654 92.1892 89.1781 91.5165C88.49 90.8443 87.9528 90.0427 87.5664 89.1127C87.1791 88.1834 86.9857 87.1317 86.9857 85.9583V72.8022C86.9857 72.506 87.2264 72.2658 87.523 72.2658H92.0359C92.3329 72.2658 92.5731 72.506 92.5731 72.8022V85.1426C92.5731 87.7755 93.762 89.0912 96.1409 89.0912C97.4303 89.0912 98.4683 88.7198 99.257 87.9754C100.044 87.2314 100.439 86.2876 100.439 85.1426V72.8022C100.439 72.506 100.68 72.2658 100.976 72.2658H105.489C105.786 72.2658 106.026 72.506 106.026 72.8022V93.9415C106.026 95.429 105.775 96.7597 105.274 97.9334C104.772 99.1064 104.084 100.094 103.211 100.895C102.336 101.695 101.305 102.311 100.117 102.741C98.9269 103.17 97.659 103.384 96.3124 103.384C93.1895 103.384 90.8539 102.597 89.3071 101.024C87.8642 99.5559 87.094 97.578 86.9965 95.0903C86.9849 94.7903 87.2333 94.5428 87.5341 94.5428H91.6731C91.9486 94.5428 92.1833 94.7512 92.2056 95.0254C92.289 96.0561 92.6479 96.8826 93.2827 97.5041C94.0134 98.2193 95.1094 98.5769 96.5707 98.5769C97.086 98.5769 97.573 98.4698 98.0316 98.2549C98.4898 98.0405 98.8981 97.7405 99.257 97.3541C99.6145 96.9677 99.9017 96.488 100.117 95.9164C100.331 95.343 100.439 94.7138 100.439 94.0274V90.5937Z" fill="black"/>
<path fill-rule="evenodd" clip-rule="evenodd" d="M118.533 89.1773C121.742 89.1773 123.347 87.0029 123.347 82.6529C123.347 80.7644 122.902 79.2266 122.015 78.039C121.126 76.8519 119.98 76.2575 118.576 76.2575C117.229 76.2575 116.105 76.8158 115.202 77.9316C114.299 79.0478 113.849 80.5069 113.849 82.3095C113.849 86.8882 115.41 89.1773 118.533 89.1773ZM108.562 102.848V72.8023C108.562 72.5058 108.802 72.266 109.099 72.266H113.406C113.699 72.266 113.938 72.5006 113.943 72.7933L113.977 74.8413C115.267 72.7529 117.229 71.7076 119.866 71.7076C121.183 71.7076 122.408 71.9655 123.54 72.4804C124.672 72.9957 125.639 73.7402 126.441 74.7124C127.243 75.6854 127.874 76.8734 128.332 78.275C128.791 79.6774 129.02 81.2655 129.02 83.0393C129.02 84.6421 128.827 86.1081 128.44 87.4388C128.053 88.7694 127.487 89.9217 126.743 90.8944C125.997 91.867 125.087 92.6183 124.013 93.1474C122.938 93.6765 121.714 93.9412 120.338 93.9412C117.731 93.9412 115.639 92.8401 114.064 90.6365V102.848C114.064 103.144 113.823 103.384 113.526 103.384H109.099C108.802 103.384 108.562 103.144 108.562 102.848Z" fill="black"/>
<path fill-rule="evenodd" clip-rule="evenodd" d="M151.026 89.263C154.435 89.263 156.14 87.117 156.14 82.825C156.14 78.5613 154.435 76.4295 151.026 76.4295C147.615 76.4295 145.912 78.5613 145.912 82.825C145.912 87.117 147.615 89.263 151.026 89.263ZM151.026 93.9413C149.307 93.9413 147.773 93.6693 146.427 93.1264C145.08 92.5832 143.941 91.8241 143.01 90.8511C142.079 89.8789 141.369 88.7051 140.883 87.3314C140.395 85.9582 140.152 84.4556 140.152 82.825C140.152 81.1655 140.402 79.6483 140.904 78.2751C141.405 76.9015 142.129 75.7285 143.074 74.7555C144.02 73.7828 145.159 73.032 146.491 72.502C147.824 71.9729 149.335 71.7077 151.026 71.7077C152.687 71.7077 154.178 71.9729 155.496 72.502C156.813 73.032 157.938 73.7755 158.87 74.734C159.801 75.6929 160.517 76.8585 161.019 78.2321C161.52 79.6058 161.771 81.1367 161.771 82.825C161.771 84.5137 161.52 86.0373 161.019 87.3959C160.517 88.7554 159.801 89.9218 158.87 90.894C157.938 91.8671 156.807 92.6184 155.475 93.1475C154.142 93.6766 152.659 93.9413 151.026 93.9413Z" fill="black"/>
<path fill-rule="evenodd" clip-rule="evenodd" d="M14.6633 78.6615C14.4145 78.6615 14.1957 78.4891 14.1424 78.2459C13.9636 77.4344 13.6159 76.8507 13.0984 76.494C12.4971 76.0793 11.5516 75.8717 10.2622 75.8717C9.20187 75.8717 8.38525 76.0079 7.81232 76.2795C7.23897 76.5512 6.95272 77.002 6.95272 77.6313C6.95272 78.2609 7.23897 78.7406 7.81232 79.0694C8.38525 79.3982 9.24485 79.7201 10.3911 80.0351C11.5941 80.3785 12.74 80.6859 13.8295 80.9575C14.9182 81.23 15.8775 81.5231 16.7092 81.8373C17.8262 82.2955 18.6858 82.9178 19.288 83.7048C19.8897 84.4917 20.1901 85.5718 20.1901 86.945C20.1901 89.1491 19.4096 90.8661 17.8482 92.0958C16.2858 93.3267 13.9868 93.9413 10.9494 93.9413C7.68338 93.9413 5.1828 93.2549 3.44985 91.8813C1.87978 90.6379 0.997833 89.0781 0.802274 87.2016C0.769179 86.8823 1.01803 86.6021 1.33909 86.6021H6.02392C6.29212 86.6021 6.5169 86.8015 6.55258 87.0671C6.65702 87.8463 7.03395 88.4635 7.68338 88.9195C8.45702 89.4637 9.53152 89.7353 10.9069 89.7353C11.9096 89.7353 12.783 89.5707 13.5282 89.2415C14.2873 88.9066 14.6599 88.3264 14.6457 87.5008C14.6337 86.8092 14.1802 86.2058 13.551 85.9191C12.896 85.6208 12.1288 85.3621 11.2507 85.1425C9.47393 84.7135 8.0414 84.3271 6.95272 83.9833C5.86318 83.6403 4.94684 83.2255 4.202 82.739C3.19841 82.1098 2.50428 81.3942 2.11746 80.593C1.73064 79.7919 1.53723 78.9189 1.53723 77.9742C1.53723 77.088 1.69411 76.2576 2.01001 75.4848C2.32506 74.7125 2.84039 74.0471 3.5573 73.4893C4.27291 72.931 5.19741 72.4951 6.32908 72.1797C7.46074 71.8655 8.82923 71.7077 10.4341 71.7077C13.4999 71.7077 15.7563 72.2949 17.2035 73.4678C18.5187 74.535 19.2953 76.0633 19.5338 78.0529C19.5721 78.3748 19.3232 78.6615 18.9987 78.6615H14.6633Z" fill="#086CFF"/>
<path d="M126.228 108.849L127.002 104.962C127.499 105.741 128.347 106.131 129.545 106.131C130.354 106.131 131.089 105.934 131.752 105.539C132.414 105.145 132.938 104.599 133.323 103.903C133.707 103.206 133.9 102.424 133.9 101.557C133.9 100.836 133.746 100.21 133.439 99.6794C133.133 99.1484 132.719 98.7417 132.197 98.4592C131.676 98.1766 131.109 98.0354 130.495 98.0354C129.54 98.0354 128.736 98.3325 128.084 98.9268L128.244 98.1523H126.082L123.948 108.849H126.228ZM129.282 104.246C128.717 104.246 128.279 104.09 127.967 103.778C127.655 103.467 127.499 103.043 127.499 102.507C127.499 102 127.597 101.552 127.791 101.163C127.986 100.773 128.259 100.468 128.61 100.249C128.96 100.03 129.355 99.9205 129.793 99.9205C130.358 99.9205 130.799 100.076 131.116 100.388C131.433 100.7 131.591 101.124 131.591 101.659C131.591 102.166 131.493 102.614 131.299 103.004C131.104 103.394 130.831 103.698 130.48 103.917C130.13 104.136 129.73 104.246 129.282 104.246ZM138.707 106.131C139.614 106.131 140.429 105.931 141.155 105.532C141.881 105.133 142.446 104.587 142.85 103.895C143.255 103.204 143.457 102.424 143.457 101.557C143.457 100.856 143.294 100.24 142.967 99.7086C142.641 99.1776 142.181 98.766 141.586 98.4738C140.992 98.1815 140.295 98.0354 139.497 98.0354C138.591 98.0354 137.777 98.2351 137.056 98.6345C136.335 99.0339 135.77 99.5795 135.361 100.271C134.952 100.963 134.747 101.742 134.747 102.609C134.747 103.311 134.91 103.927 135.237 104.458C135.563 104.989 136.026 105.4 136.625 105.693C137.224 105.985 137.918 106.131 138.707 106.131ZM138.854 104.246C138.289 104.246 137.848 104.09 137.531 103.778C137.215 103.467 137.056 103.043 137.056 102.507C137.056 102 137.154 101.552 137.348 101.163C137.543 100.773 137.816 100.468 138.167 100.249C138.518 100.03 138.917 99.9205 139.365 99.9205C139.93 99.9205 140.369 100.076 140.68 100.388C140.992 100.7 141.148 101.124 141.148 101.659C141.148 102.166 141.05 102.614 140.856 103.004C140.661 103.394 140.388 103.698 140.037 103.917C139.687 104.136 139.292 104.246 138.854 104.246ZM148.265 106.131C149.171 106.131 149.986 105.931 150.712 105.532C151.438 105.133 152.003 104.587 152.407 103.895C152.812 103.204 153.014 102.424 153.014 101.557C153.014 100.856 152.851 100.24 152.524 99.7086C152.198 99.1776 151.738 98.766 151.143 98.4738C150.549 98.1815 149.853 98.0354 149.054 98.0354C148.148 98.0354 147.334 98.2351 146.613 98.6345C145.892 99.0339 145.327 99.5795 144.918 100.271C144.509 100.963 144.304 101.742 144.304 102.609C144.304 103.311 144.468 103.927 144.794 104.458C145.12 104.989 145.583 105.4 146.182 105.693C146.781 105.985 147.475 106.131 148.265 106.131ZM148.411 104.246C147.846 104.246 147.405 104.09 147.088 103.778C146.772 103.467 146.613 103.043 146.613 102.507C146.613 102 146.711 101.552 146.905 101.163C147.1 100.773 147.373 100.468 147.724 100.249C148.075 100.03 148.474 99.9205 148.922 99.9205C149.487 99.9205 149.926 100.076 150.237 100.388C150.549 100.7 150.705 101.124 150.705 101.659C150.705 102.166 150.608 102.614 150.413 103.004C150.218 103.394 149.945 103.698 149.594 103.917C149.244 104.136 148.849 104.246 148.411 104.246ZM155.995 106.014L158.158 95.1712H155.878L153.715 106.014H155.995Z" fill="#086CFF"/>
<path fill-rule="evenodd" clip-rule="evenodd" d="M71.7976 13.0169C75.686 14.6694 81.9963 17.3523 92.2978 21.7014C92.8333 21.9271 93.4397 21.9275 93.9748 21.701L98.033 19.9796C98.6304 19.7261 99.0517 19.1329 99.0517 18.4414V2.21941C99.0517 1.33101 98.3296 0.697057 97.4429 0.7568C96.6465 0.810525 99.4402 -0.233891 71.8014 11.4391C71.1043 11.7335 71.1008 12.7207 71.7976 13.0169Z" fill="#086CFF"/>
<path fill-rule="evenodd" clip-rule="evenodd" d="M96.5793 47.4638L64.5665 33.9032C63.9678 33.6496 63.547 33.0573 63.547 32.3666V16.3518C63.547 15.4303 64.2953 14.6838 65.2194 14.6838C65.8585 14.6838 63.6781 13.9368 97.95 28.3815C98.6445 28.6274 99.107 29.3743 99.0447 29.9971L99.0464 29.9997L99.0047 45.9625C99.0047 46.884 98.256 47.6306 97.3319 47.6306C96.8879 47.6306 96.6511 47.4711 96.5531 47.4397" fill="#086CFF"/>
</svg>
