<svg width="276" height="63" viewBox="0 0 276 63" fill="none" xmlns="http://www.w3.org/2000/svg">
<path fill-rule="evenodd" clip-rule="evenodd" d="M245.421 15.9259C245.809 15.9259 246.124 15.6117 246.124 15.2239V11.4578C246.124 11.0699 245.809 10.7548 245.421 10.7548H241.929V3.98142C241.929 3.5927 241.615 3.2785 241.227 3.2785H235.437C235.049 3.2785 234.735 3.5927 234.735 3.98142V28.0119C234.735 29.5083 234.939 30.9345 235.353 32.2828C235.76 33.6327 236.427 34.8133 237.341 35.8244C238.262 36.8365 239.435 37.6453 240.854 38.2423C242.281 38.8394 244.01 39.1409 246.033 39.1409H246.124V33.4548C246.124 33.0949 245.853 32.7943 245.496 32.7562C244.33 32.6325 243.469 32.1659 242.906 31.3563C242.252 30.401 241.929 29.0443 241.929 27.2802V15.9259H245.421Z" fill="black"/>
<path fill-rule="evenodd" clip-rule="evenodd" d="M104.86 33.1891C106.696 33.1891 108.195 32.4133 109.358 30.8593C110.519 29.3061 111.101 27.2939 111.101 24.8227C111.101 19.1333 109.001 16.2886 104.803 16.2886C100.718 16.2886 98.675 19.284 98.675 25.2724C98.675 27.631 99.2661 29.539 100.446 30.999C101.627 32.4599 103.097 33.1891 104.86 33.1891ZM91.7593 37.7089V1.38164C91.7593 0.993761 92.0743 0.679565 92.4622 0.679565H98.2541C98.6419 0.679565 98.9561 0.993761 98.9561 1.38164V14.3797C101.017 11.4986 103.754 10.0572 107.165 10.0572C108.964 10.0572 110.566 10.4035 111.972 11.0955C113.378 11.7882 114.567 12.7714 115.542 14.0435C116.516 15.3163 117.257 16.8221 117.762 18.5625C118.269 20.3037 118.522 22.2219 118.522 24.3179C118.522 26.6393 118.221 28.7167 117.622 30.5502C117.023 32.3845 116.197 33.9386 115.149 35.2106C114.099 36.4835 112.834 37.4566 111.354 38.1298C109.872 38.804 108.27 39.1402 106.547 39.1402C103.097 39.1402 100.531 37.775 98.8435 35.0421L98.7986 37.7208C98.7927 38.1044 98.4793 38.411 98.0965 38.411H92.4622C92.0743 38.411 91.7593 38.0968 91.7593 37.7089Z" fill="#086CFF"/>
<path fill-rule="evenodd" clip-rule="evenodd" d="M121.388 37.7089V11.4884C121.388 11.1005 121.703 10.7863 122.091 10.7863H127.995C128.383 10.7863 128.697 11.1005 128.697 11.4884V37.7089C128.697 38.0968 128.383 38.411 127.995 38.411H122.091C121.703 38.411 121.388 38.0968 121.388 37.7089ZM121.388 6.77208V1.38164C121.388 0.993761 121.703 0.679565 122.091 0.679565H127.995C128.383 0.679565 128.697 0.993761 128.697 1.38164V6.77208C128.697 7.15996 128.383 7.47415 127.995 7.47415H122.091C121.703 7.47415 121.388 7.15996 121.388 6.77208Z" fill="#086CFF"/>
<path fill-rule="evenodd" clip-rule="evenodd" d="M156.099 28.4175C156.542 28.4175 156.871 28.8215 156.792 29.256C156.558 30.5381 156.141 31.7179 155.54 32.7968C154.809 34.1069 153.881 35.2299 152.756 36.1649C151.632 37.1015 150.347 37.8307 148.905 38.3549C147.462 38.8791 145.897 39.1408 144.21 39.1408C142.336 39.1408 140.621 38.8326 139.066 38.2152C137.51 37.597 136.17 36.662 135.046 35.4078C133.922 34.1535 133.051 32.5995 132.431 30.7473C131.813 28.8935 131.504 26.7331 131.504 24.2627C131.504 21.7923 131.813 19.6582 132.431 17.8611C133.051 16.0648 133.922 14.5963 135.046 13.4539C136.17 12.3122 137.529 11.4611 139.123 10.8988C140.715 10.3373 142.486 10.057 144.435 10.057C146.235 10.057 147.874 10.3009 149.355 10.787C150.835 11.274 152.128 11.9853 153.234 12.9203C154.339 13.857 155.211 14.9799 155.849 16.2892C156.378 17.3783 156.726 18.5699 156.893 19.864C156.948 20.2882 156.624 20.6693 156.195 20.6693H150.197C149.871 20.6693 149.583 20.4458 149.515 20.129C149.264 18.962 148.725 18.0279 147.893 17.3284C146.938 16.5238 145.765 16.1207 144.379 16.1207C143.592 16.1207 142.862 16.2528 142.187 16.5137C141.512 16.7762 140.922 17.2157 140.415 17.8331C139.909 18.4505 139.506 19.2745 139.207 20.3043C138.906 21.3342 138.756 22.5969 138.756 24.0942C138.756 27.126 139.3 29.372 140.387 30.832C141.474 32.2912 142.73 33.0212 144.154 33.0212C145.578 33.0212 146.797 32.6283 147.808 31.8423C148.691 31.1564 149.246 30.2011 149.473 28.9748C149.534 28.6487 149.827 28.4175 150.158 28.4175H156.099Z" fill="black"/>
<path fill-rule="evenodd" clip-rule="evenodd" d="M159.055 37.7081V11.4884C159.055 11.1005 159.369 10.7863 159.757 10.7863H165.212C165.6 10.7863 165.915 11.1014 165.915 11.4893V14.0994C166.514 13.1644 167.141 12.4335 167.799 11.9093C168.453 11.3859 169.128 10.9828 169.822 10.7017C170.515 10.4213 171.217 10.2443 171.931 10.169C172.642 10.0944 173.373 10.0572 174.123 10.0572H174.376C174.764 10.0572 175.078 10.3714 175.078 10.7592V16.7222C175.078 17.1312 174.73 17.4641 174.322 17.4217C173.8 17.3667 173.279 17.3463 172.757 17.3599C169.181 17.4471 166.364 20.4595 166.364 24.0368V37.7081C166.364 38.096 166.05 38.411 165.661 38.411H159.758C159.37 38.411 159.055 38.096 159.055 37.7081Z" fill="black"/>
<path fill-rule="evenodd" clip-rule="evenodd" d="M194.701 34.7614C194.175 35.997 193.229 36.9608 191.861 37.6535C190.493 38.3463 188.947 38.6918 187.222 38.6918C185.761 38.6918 184.411 38.4572 183.175 37.9906C181.938 37.5223 180.87 36.8482 179.97 35.9691C179.07 35.09 178.367 34.0407 177.862 32.8246C177.356 31.6085 177.103 30.2323 177.103 28.6977V11.4889C177.103 11.101 177.417 10.786 177.806 10.786H183.709C184.097 10.786 184.411 11.101 184.411 11.4889V27.6306C184.411 31.0749 185.967 32.7966 189.079 32.7966C190.766 32.7966 192.123 32.3097 193.155 31.3366C194.184 30.3635 194.701 29.1288 194.701 27.6306V11.4889C194.701 11.101 195.015 10.786 195.404 10.786H201.307C201.696 10.786 202.01 11.101 202.01 11.4889V39.1407C202.01 41.0868 201.681 42.8272 201.026 44.3626C200.369 45.8972 199.47 47.1887 198.327 48.2371C197.183 49.2839 195.834 50.0901 194.279 50.6516C192.724 51.2131 191.065 51.4934 189.303 51.4934C185.218 51.4934 182.163 50.4636 180.139 48.4048C178.252 46.4857 177.244 43.8977 177.116 40.6439C177.101 40.251 177.426 39.9274 177.82 39.9274H183.234C183.594 39.9274 183.902 40.2001 183.93 40.5584C184.04 41.9075 184.51 42.9881 185.34 43.8011C186.296 44.7361 187.729 45.2044 189.641 45.2044C190.315 45.2044 190.952 45.0647 191.552 44.7835C192.151 44.5032 192.685 44.1102 193.155 43.6046C193.623 43.099 193.998 42.4715 194.279 41.7245C194.56 40.9742 194.701 40.151 194.701 39.2533V34.7614Z" fill="black"/>
<path fill-rule="evenodd" clip-rule="evenodd" d="M218.372 32.9088C222.57 32.9088 224.669 30.0649 224.669 24.3747C224.669 21.9035 224.087 19.8921 222.926 18.3381C221.764 16.7857 220.265 16.0083 218.429 16.0083C216.666 16.0083 215.196 16.7374 214.015 18.1983C212.834 19.6584 212.244 21.5664 212.244 23.9258C212.244 29.9142 214.286 32.9088 218.372 32.9088ZM205.328 50.7908V11.4884C205.328 11.1005 205.643 10.7863 206.031 10.7863H211.665C212.048 10.7863 212.361 11.0929 212.367 11.4766L212.412 14.1544C214.099 11.4232 216.666 10.0572 220.116 10.0572C221.839 10.0572 223.44 10.3934 224.922 11.0675C226.402 11.7408 227.667 12.7147 228.717 13.9867C229.766 15.2596 230.591 16.8137 231.19 18.6472C231.79 20.4815 232.091 22.5589 232.091 24.8794C232.091 26.9763 231.837 28.8937 231.331 30.634C230.825 32.3752 230.085 33.8819 229.111 35.1539C228.136 36.4268 226.946 37.4091 225.54 38.1027C224.135 38.7938 222.533 39.1402 220.734 39.1402C217.322 39.1402 214.585 37.7005 212.525 34.8177V50.7908C212.525 51.1787 212.211 51.4929 211.822 51.4929H206.031C205.643 51.4929 205.328 51.1787 205.328 50.7908Z" fill="black"/>
<path fill-rule="evenodd" clip-rule="evenodd" d="M260.874 33.0204C265.333 33.0204 267.564 30.2138 267.564 24.5989C267.564 19.0221 265.333 16.2333 260.874 16.2333C256.412 16.2333 254.183 19.0221 254.183 24.5989C254.183 30.2138 256.412 33.0204 260.874 33.0204ZM260.874 39.1408C258.624 39.1408 256.619 38.7851 254.857 38.0746C253.096 37.3641 251.605 36.3715 250.388 35.0978C249.17 33.8266 248.242 32.2912 247.606 30.4941C246.968 28.6978 246.649 26.7322 246.649 24.5989C246.649 22.4283 246.977 20.4432 247.634 18.647C248.289 16.8499 249.235 15.3162 250.472 14.0433C251.71 12.7713 253.199 11.7889 254.942 11.0953C256.685 10.4034 258.662 10.057 260.874 10.057C263.048 10.057 264.996 10.4034 266.722 11.0953C268.444 11.7889 269.916 12.7611 271.135 14.0153C272.353 15.2696 273.29 16.794 273.946 18.5911C274.601 20.3873 274.93 22.3902 274.93 24.5989C274.93 26.8076 274.601 28.8012 273.946 30.5779C273.29 32.3573 272.353 33.8825 271.135 35.1545C269.916 36.4266 268.436 37.4098 266.694 38.1025C264.95 38.7936 263.01 39.1408 260.874 39.1408Z" fill="black"/>
<path fill-rule="evenodd" clip-rule="evenodd" d="M82.4979 19.1526C82.1718 19.1526 81.8864 18.9264 81.8161 18.6089C81.5824 17.5469 81.1276 16.7838 80.4509 16.3172C79.6642 15.7752 78.4269 15.5025 76.7407 15.5025C75.3535 15.5025 74.2847 15.6812 73.5352 16.036C72.7857 16.3917 72.4114 16.982 72.4114 17.8043C72.4114 18.6292 72.7857 19.2559 73.5352 19.6861C74.2847 20.1163 75.4094 20.5381 76.9092 20.9497C78.4828 21.3977 79.9818 21.8008 81.4062 22.1565C82.8315 22.513 84.0858 22.8958 85.174 23.3066C86.6358 23.9061 87.7596 24.7209 88.5472 25.7498C89.3348 26.7796 89.7278 28.1923 89.7278 29.9885C89.7278 32.8713 88.7064 35.1181 86.6637 36.7264C84.6202 38.3363 81.6129 39.1408 77.6401 39.1408C73.3667 39.1408 70.096 38.2423 67.8289 36.446C65.7752 34.8192 64.6217 32.779 64.366 30.3239C64.3228 29.9064 64.648 29.5397 65.068 29.5397H71.197C71.5476 29.5397 71.8415 29.8005 71.888 30.1477C72.0244 31.1674 72.5173 31.9753 73.3667 32.5715C74.3787 33.2838 75.7846 33.6377 77.5834 33.6377C78.8952 33.6377 80.0377 33.4235 81.0133 32.9924C82.0058 32.5546 82.4936 31.7958 82.475 30.7151C82.4589 29.8107 81.8661 29.0205 81.0429 28.6462C80.1859 28.2558 79.1823 27.9179 78.0339 27.6308C75.7092 27.0693 73.835 26.5637 72.4114 26.1148C70.9861 25.6651 69.7869 25.1231 68.813 24.4863C67.5003 23.6631 66.5924 22.7281 66.086 21.6788C65.5804 20.6312 65.3272 19.4888 65.3272 18.2532C65.3272 17.0938 65.5321 16.0081 65.9454 14.9977C66.3579 13.9865 67.032 13.1168 67.9695 12.3868C68.9061 11.6559 70.1147 11.0868 71.5959 10.6735C73.0762 10.2628 74.8657 10.057 76.9651 10.057C80.976 10.057 83.9274 10.8243 85.8202 12.3588C87.5411 13.7545 88.5574 15.7532 88.8682 18.3565C88.919 18.7782 88.5938 19.1526 88.1695 19.1526H82.4979Z" fill="#086CFF"/>
<path d="M227.309 62.0156L228.248 57.3052C228.85 58.2496 229.877 58.7218 231.329 58.7218C232.309 58.7218 233.201 58.4828 234.003 58.0046C234.806 57.5265 235.441 56.8654 235.907 56.0213C236.373 55.1772 236.606 54.2298 236.606 53.1791C236.606 52.3055 236.421 51.5469 236.049 50.9035C235.677 50.2601 235.175 49.7672 234.543 49.4249C233.912 49.0825 233.224 48.9113 232.48 48.9113C231.323 48.9113 230.349 49.2714 229.558 49.9915L229.753 49.053H227.132L224.547 62.0156H227.309ZM231.011 56.4374C230.326 56.4374 229.795 56.2486 229.417 55.8708C229.039 55.493 228.85 54.9794 228.85 54.3301C228.85 53.7162 228.968 53.1732 229.204 52.7009C229.44 52.2287 229.771 51.8598 230.196 51.5942C230.621 51.3285 231.099 51.1957 231.63 51.1957C232.315 51.1957 232.849 51.3846 233.233 51.7624C233.617 52.1402 233.808 52.6537 233.808 53.303C233.808 53.9169 233.69 54.46 233.454 54.9322C233.218 55.4044 232.888 55.7734 232.463 56.039C232.038 56.3046 231.554 56.4374 231.011 56.4374ZM242.433 58.7218C243.53 58.7218 244.519 58.4798 245.399 57.9958C246.278 57.5118 246.963 56.8506 247.453 56.0124C247.943 55.1742 248.188 54.2298 248.188 53.1791C248.188 52.3291 247.99 51.5824 247.595 50.9389C247.199 50.2955 246.641 49.7967 245.921 49.4426C245.201 49.0884 244.357 48.9113 243.389 48.9113C242.291 48.9113 241.305 49.1533 240.431 49.6374C239.558 50.1214 238.873 50.7825 238.377 51.6207C237.881 52.4589 237.634 53.4034 237.634 54.4541C237.634 55.3041 237.831 56.0508 238.227 56.6942C238.622 57.3376 239.183 57.8364 239.909 58.1906C240.635 58.5448 241.476 58.7218 242.433 58.7218ZM242.61 56.4374C241.925 56.4374 241.391 56.2486 241.007 55.8708C240.623 55.493 240.431 54.9794 240.431 54.3301C240.431 53.7162 240.55 53.1732 240.786 52.7009C241.022 52.2287 241.352 51.8598 241.777 51.5942C242.202 51.3285 242.686 51.1957 243.229 51.1957C243.914 51.1957 244.445 51.3846 244.823 51.7624C245.201 52.1402 245.39 52.6537 245.39 53.303C245.39 53.9169 245.272 54.46 245.036 54.9322C244.8 55.4044 244.469 55.7734 244.044 56.039C243.619 56.3046 243.141 56.4374 242.61 56.4374ZM254.014 58.7218C255.112 58.7218 256.101 58.4798 256.98 57.9958C257.86 57.5118 258.544 56.8506 259.034 56.0124C259.524 55.1742 259.769 54.2298 259.769 53.1791C259.769 52.3291 259.571 51.5824 259.176 50.9389C258.78 50.2955 258.223 49.7967 257.502 49.4426C256.782 49.0884 255.938 48.9113 254.97 48.9113C253.872 48.9113 252.886 49.1533 252.013 49.6374C251.139 50.1214 250.454 50.7825 249.959 51.6207C249.463 52.4589 249.215 53.4034 249.215 54.4541C249.215 55.3041 249.413 56.0508 249.808 56.6942C250.204 57.3376 250.764 57.8364 251.49 58.1906C252.216 58.5448 253.058 58.7218 254.014 58.7218ZM254.191 56.4374C253.506 56.4374 252.972 56.2486 252.588 55.8708C252.205 55.493 252.013 54.9794 252.013 54.3301C252.013 53.7162 252.131 53.1732 252.367 52.7009C252.603 52.2287 252.934 51.8598 253.359 51.5942C253.784 51.3285 254.268 51.1957 254.811 51.1957C255.496 51.1957 256.027 51.3846 256.405 51.7624C256.782 52.1402 256.971 52.6537 256.971 53.303C256.971 53.9169 256.853 54.46 256.617 54.9322C256.381 55.4044 256.05 55.7734 255.625 56.039C255.2 56.3046 254.722 56.4374 254.191 56.4374ZM263.382 58.5802L266.003 45.4405H263.24L260.619 58.5802H263.382Z" fill="#086CFF"/>
<path fill-rule="evenodd" clip-rule="evenodd" d="M9.73059 13.9738C13.9456 15.765 20.785 18.6732 31.9521 23.387C32.5322 23.6318 33.1894 23.6326 33.7695 23.3862L38.1683 21.5213C38.8161 21.2469 39.2726 20.6033 39.2726 19.853V2.27069C39.2726 1.30693 38.4901 0.619256 37.5289 0.685313C36.6659 0.742902 39.6935 -0.389388 9.73483 12.2631C8.9794 12.5824 8.97517 13.6529 9.73059 13.9738Z" fill="#086CFF"/>
<path fill-rule="evenodd" clip-rule="evenodd" d="M36.5947 51.3123L1.89431 36.6137C1.2456 36.3384 0.789124 35.6973 0.789124 34.9487V17.5892C0.789124 16.5898 1.60044 15.7811 2.60231 15.7811C3.29507 15.7811 0.93225 14.9714 38.0802 30.6279C38.8339 30.8946 39.3344 31.7051 39.2667 32.3801L39.2692 32.3818L39.2235 49.6854C39.2235 50.6847 38.4122 51.4935 37.4103 51.4935C36.9293 51.4935 36.6726 51.3207 36.5668 51.2869" fill="#086CFF"/>
</svg>
