<svg width="158" height="96" viewBox="0 0 158 96" fill="none" xmlns="http://www.w3.org/2000/svg">
<path fill-rule="evenodd" clip-rule="evenodd" d="M69.4982 12.2823C73.3866 13.9372 79.697 16.624 89.9984 20.9794C90.534 21.2054 91.1404 21.2058 91.6755 20.979L95.7337 19.2552C96.3311 19.0012 96.7523 18.4072 96.7523 17.7147V1.46912C96.7523 0.579428 96.0302 -0.0554494 95.1436 0.00437972C94.3471 0.0581829 97.1409 -0.987751 69.5021 10.7022C68.805 10.997 68.8015 11.9857 69.4982 12.2823Z" fill="#0066F5"/>
<path fill-rule="evenodd" clip-rule="evenodd" d="M94.28 46.7793L62.2672 33.1989C61.6684 32.945 61.2477 32.3519 61.2477 31.6602V15.6221C61.2477 14.6993 61.996 13.9516 62.92 13.9516C63.5591 13.9516 61.3788 13.2035 95.6506 27.6693C96.3452 27.9155 96.8076 28.6635 96.7453 29.2872L96.747 29.2898L96.7054 45.2758C96.7054 46.1986 95.9566 46.9463 95.0326 46.9463C94.5886 46.9463 94.3518 46.7866 94.2538 46.7552" fill="#0066F5"/>
<path d="M0.808851 91.2468C2.02702 89.504 2.98414 87.1513 3.59323 84.9729C3.68024 84.6243 4.02829 84.45 4.37633 84.5372L6.72565 85.4085C6.98668 85.4957 7.16071 85.8442 7.0737 86.1057C6.3776 88.5455 5.42047 91.2468 4.1153 93.251C3.94127 93.5124 3.59323 93.5995 3.33219 93.4253L0.982875 92.1182C0.634828 91.9439 0.547816 91.5082 0.808851 91.2468ZM13.5996 82.0973H4.20231C3.85426 82.0973 3.59323 81.8359 3.59323 81.4873V67.4581C3.59323 67.1095 3.85426 66.8481 4.20231 66.8481H26.0423C26.3903 66.8481 26.6513 67.1095 26.6513 67.4581V81.4873C26.6513 81.8359 26.3903 82.0973 26.0423 82.0973H14.4697C16.384 83.0558 18.5592 84.45 19.9514 85.7571C20.2125 86.0185 20.2125 86.3671 19.9514 86.6285L18.1242 88.3712C17.8631 88.5455 17.5151 88.6327 17.3411 88.3712C16.1229 87.1513 14.1216 85.67 12.2074 84.5372C11.8593 84.3629 11.7723 83.8401 12.1204 83.5786L13.5996 82.0973ZM7.16071 72.8606H13.1645V70.1594H7.16071V72.8606ZM7.16071 78.786H13.1645V75.9976H7.16071V78.786ZM18.4722 91.4211C19.6034 91.4211 19.9514 91.0725 20.2125 88.7198C20.2125 88.2841 20.6475 88.0227 21.0826 88.197C21.7787 88.5455 22.5618 88.8069 23.2579 89.0684C23.5189 89.1555 23.6929 89.4169 23.6929 89.6783C23.2579 93.7738 22.0397 94.9066 18.9073 94.9066H13.5996C9.336 94.9066 8.29186 93.7738 8.29186 90.3754V85.67C8.29186 85.3214 8.55289 85.06 8.90094 85.06H11.5983C11.9464 85.06 12.2074 85.3214 12.2074 85.67V90.2883C12.2074 91.2468 12.4684 91.4211 14.1216 91.4211H18.4722ZM22.8228 70.1594H16.993V72.8606H22.8228V70.1594ZM22.8228 75.9105H16.993V78.6989H22.8228V75.9105ZM26.1293 84.45C27.6955 86.6285 29.2617 89.2426 29.9578 91.3339C30.0448 91.5954 29.8708 91.9439 29.6097 92.031L26.9994 93.1638C26.6513 93.3381 26.3033 93.1638 26.2163 92.8153C25.6072 90.8983 24.302 88.2841 22.9098 86.1057C22.7358 85.7571 22.8228 85.4085 23.1709 85.2343L25.5202 84.2758C25.6942 84.1886 25.9552 84.2758 26.1293 84.45Z" fill="#0066F5"/>
<path d="M42.1394 66.9352C41.5303 69.2008 40.8342 71.3793 39.9641 73.4706V94.9937C39.9641 95.3423 39.7031 95.6037 39.355 95.6037H36.9187C36.5707 95.6037 36.3096 95.3423 36.3096 94.9937V80.2674C35.7876 81.0516 35.1785 81.7487 34.6564 82.3587C34.3954 82.7072 33.8733 82.6201 33.6993 82.1844C33.2642 81.313 32.7422 80.1802 32.3071 79.4831C32.1331 79.2217 32.2201 78.9603 32.3941 78.786C35.1785 75.7362 37.3538 71.0307 38.5719 65.9767C38.6589 65.6282 38.92 65.4539 39.268 65.541L41.7914 66.151C42.0524 66.3253 42.2264 66.6738 42.1394 66.9352ZM53.1899 70.6822C52.7548 72.0764 52.3198 73.4706 51.9717 74.6905H59.2807C59.6288 74.6905 59.8898 74.9519 59.8898 75.3005V94.6452C59.8898 94.9937 59.6288 95.2551 59.2807 95.2551H56.0613V93.6867H47.0121V94.8195C47.0121 95.168 46.751 95.4294 46.403 95.4294H44.0537C43.7056 95.4294 43.4446 95.168 43.4446 94.8195V75.3876C43.4446 75.0391 43.7056 74.7777 44.0537 74.7777H48.1432C48.4913 73.4706 48.6653 72.0764 48.8393 70.7693H42.7485C42.4005 70.7693 42.1394 70.5079 42.1394 70.1593V67.7195C42.1394 67.3709 42.4005 67.1095 42.7485 67.1095H60.4119C60.7599 67.1095 61.021 67.3709 61.021 67.7195V70.0722C61.021 70.4208 60.7599 70.6822 60.4119 70.6822H53.1899ZM56.1483 78.2632H47.0991V82.533H56.1483V78.2632ZM56.1483 90.2011V86.0185H47.0991V90.2011H56.1483Z" fill="#0066F5"/>
<path d="M93.9984 91.6825V93.8609C93.9984 94.2095 93.7374 94.4709 93.3893 94.4709H65.3716C65.0235 94.4709 64.7625 94.2095 64.7625 93.8609V91.6825C64.7625 91.3339 65.0235 91.0725 65.3716 91.0725H68.504V82.0973C68.243 82.1844 67.9819 82.3587 67.7209 82.4458C67.4598 82.533 67.1118 82.4458 66.9378 82.1844C66.5897 81.5744 66.0677 80.7902 65.6326 80.1802C65.3716 79.8317 65.5456 79.396 65.8936 79.2217C68.678 78.3503 72.0715 76.7818 74.0727 75.3876C74.2468 75.2133 74.5078 75.2133 74.7688 75.3876L76.422 76.6076C76.7701 76.869 76.7701 77.3047 76.422 77.5661C74.4208 78.9603 71.5494 80.5288 69.1131 81.8359H89.9959C90.3439 81.8359 90.605 82.0973 90.605 82.4458V91.1596H93.5634C93.7374 91.1596 93.9984 91.4211 93.9984 91.6825ZM92.9543 74.8648H65.7196C65.3716 74.8648 65.1105 74.6034 65.1105 74.2548V72.0764C65.1105 71.7278 65.3716 71.4664 65.7196 71.4664H72.6805C72.0715 70.2465 71.1143 68.7651 70.2442 67.458C70.0702 67.1966 70.1572 66.7609 70.5052 66.5867L72.6805 65.6281C72.9416 65.541 73.2026 65.6281 73.3766 65.8024C74.5078 67.1095 75.5519 68.7651 76.161 70.0722C76.335 70.3336 76.161 70.6822 75.9 70.8564L74.6818 71.4664H84.0791L83.0349 71.1179C82.6869 71.0307 82.5129 70.595 82.6869 70.2465C83.47 68.9394 84.4271 67.2838 85.0362 65.8896C85.1232 65.6281 85.4713 65.4539 85.7323 65.541L88.3427 66.3253C88.6907 66.4124 88.8647 66.8481 88.6907 67.1966C87.7336 68.7651 86.6894 70.2465 85.8193 71.4664H92.9543C93.3023 71.4664 93.5634 71.7278 93.5634 72.0764V74.2548C93.5634 74.6034 93.3023 74.8648 92.9543 74.8648ZM71.8104 91.1596H74.5078V85.06H71.8104V91.1596ZM77.9883 84.9728V91.0725H80.6856V84.9728H77.9883ZM84.2531 75.3005C87.0375 76.259 90.866 77.7404 93.2153 78.8732C93.5634 79.0474 93.6504 79.4831 93.4764 79.7445L92.0842 81.7487C91.9101 82.0101 91.5621 82.0973 91.3011 81.923C89.1258 80.7902 85.5583 79.2217 82.5999 78.0889C82.2518 77.9146 82.0778 77.4789 82.3388 77.2175L83.644 75.5619C83.818 75.3005 84.0791 75.2133 84.2531 75.3005ZM84.0791 84.9728V91.0725H86.7765V84.9728H84.0791Z" fill="#0066F5"/>
<path d="M125.323 73.4706H114.011V78.786C114.011 83.6658 113.489 90.8111 110.531 95.3423C110.444 95.5166 110.183 95.5166 110.009 95.4294C109.312 94.8195 108.181 94.1224 107.398 93.5995C107.224 93.5124 107.137 93.251 107.311 93.0767C107.659 92.641 107.92 92.1182 108.181 91.6825H102.09V93.6867C102.09 93.8609 101.916 94.0352 101.742 94.0352H99.3061C99.1321 94.0352 98.9581 93.8609 98.9581 93.6867V84.2757C98.697 84.6243 98.523 84.8857 98.262 85.2343C98.088 85.4957 97.6529 85.4085 97.6529 85.06C97.3919 83.9272 96.9568 82.2716 96.5217 81.313C96.4347 81.2259 96.5217 81.0516 96.5217 80.9645C98.436 78.2632 99.6542 74.4291 100.437 70.3336H97.1308C96.9568 70.3336 96.7828 70.1593 96.7828 69.9851V67.2838C96.7828 67.1095 96.9568 66.9352 97.1308 66.9352H108.529C108.703 66.9352 108.877 67.1095 108.877 67.2838V70.0722C108.877 70.2465 108.703 70.4208 108.529 70.4208H103.831C103.396 72.5992 102.874 74.8648 102.178 76.9561H107.833C108.007 76.9561 108.181 77.1304 108.181 77.3047V91.3339C110.009 87.4127 110.183 82.533 110.183 78.786V70.1593C110.183 69.9851 110.357 69.8108 110.531 69.8108H116.621C116.186 68.9394 115.664 67.9809 115.142 67.1095C115.055 66.9352 115.142 66.6738 115.316 66.5867L118.014 65.541C118.188 65.4539 118.362 65.541 118.449 65.7153C119.319 67.0224 120.276 68.678 120.711 69.8108L120.45 69.8979H125.236C125.41 69.8979 125.584 70.0722 125.584 70.2465V73.2092C125.671 73.2963 125.497 73.4706 125.323 73.4706ZM104.962 80.1802H101.916V88.2841H104.962V80.1802Z" fill="#231F20"/>
<path d="M133.154 80.4417C132.023 79.4831 130.021 78.3503 128.368 77.6532C128.194 77.5661 128.107 77.3047 128.194 77.1304L129.76 74.8648C129.847 74.6905 130.021 74.6905 130.195 74.6905C131.936 75.3876 134.024 76.4333 135.242 77.3918C135.416 77.479 135.416 77.7404 135.329 77.9146L133.676 80.4417C133.589 80.6159 133.328 80.6159 133.154 80.4417ZM129.238 92.2924C130.717 89.9397 132.719 86.3671 134.285 82.8815C134.372 82.7072 134.633 82.6201 134.807 82.7944L137.156 84.7114C137.243 84.7986 137.33 84.9728 137.243 85.1471C135.851 88.2841 134.111 91.6825 132.545 94.6452C132.458 94.8195 132.197 94.9066 132.023 94.7323L129.325 92.7281C129.151 92.641 129.064 92.3796 129.238 92.2924ZM134.981 71.815C133.85 70.8565 131.848 69.6365 130.108 68.8523C129.934 68.7651 129.847 68.5037 129.934 68.3294L131.587 66.0638C131.674 65.8896 131.848 65.8896 132.023 65.9767C133.763 66.6738 135.938 67.8066 137.156 68.7651C137.33 68.8523 137.33 69.1137 137.243 69.288L135.503 71.815C135.416 71.9021 135.155 71.9021 134.981 71.815ZM151.513 91.5953C153.253 91.5953 153.601 90.8982 153.949 87.7613C153.949 87.4998 154.298 87.3256 154.472 87.4998C155.255 87.9355 156.299 88.3712 157.082 88.5455C157.256 88.6326 157.343 88.8069 157.343 88.9812C156.821 93.5124 155.69 95.0809 151.774 95.0809H144.726C140.289 95.0809 138.983 93.8609 138.983 89.3298V80.7902L137.417 81.4002C137.243 81.4873 137.069 81.4002 136.982 81.2259L135.764 78.5246C135.677 78.3503 135.764 78.0889 135.938 78.0018L138.896 76.7818V69.2008C138.896 69.0265 139.07 68.8523 139.244 68.8523H142.203C142.377 68.8523 142.551 69.0265 142.551 69.2008V75.3005L145.596 74.0806V65.9767C145.596 65.8024 145.77 65.6282 145.944 65.6282H148.903C149.077 65.6282 149.251 65.8024 149.251 65.9767V72.6864L152.557 71.3793L152.905 71.1179L153.427 70.7693C153.514 70.6822 153.688 70.6822 153.775 70.6822L155.951 71.5536C156.125 71.6407 156.212 71.815 156.212 71.9892L156.125 72.2507V72.3378C156.125 78.0018 156.038 81.7487 155.864 83.1429C155.777 84.7986 155.168 85.5828 154.124 86.1056C153.253 86.5413 151.948 86.6285 150.817 86.6285C150.643 86.6285 150.469 86.4542 150.469 86.2799C150.382 85.4085 150.121 84.2757 149.86 83.4915C149.773 83.2301 149.947 82.9687 150.208 83.0558C150.73 83.0558 151.339 83.0558 151.6 83.0558C152.035 83.0558 152.296 82.9687 152.383 82.3587C152.47 81.7487 152.557 79.6574 152.557 75.3876L149.338 76.6947V87.6741C149.338 87.8484 149.164 88.0227 148.99 88.0227H146.031C145.857 88.0227 145.683 87.8484 145.683 87.6741V78.0018L142.638 79.2217V89.3298C142.638 91.2468 142.986 91.5082 144.987 91.5082H151.513V91.5953Z" fill="#231F20"/>
</svg>
