<svg width="350" height="64" viewBox="0 0 350 64" fill="none" xmlns="http://www.w3.org/2000/svg">
<path d="M11.2758 17.5247C16.3922 19.7852 24.8192 23.2513 38.513 29.1287C39.2654 29.4301 40.0178 29.4301 40.7702 29.1287L46.1876 26.8681C46.94 26.5667 47.5419 25.8132 47.5419 24.7583V3.20816C47.5419 2.00255 46.4886 1.24905 45.4352 1.24905C44.3818 1.24905 48.1439 -0.107255 11.2758 15.4149C10.3729 15.867 10.3729 17.2233 11.2758 17.5247Z" fill="#0066F5"/>
<path d="M44.2313 63.4884L1.64496 45.4043C0.892546 45.1029 0.290619 44.3494 0.290619 43.2945V22.0457C0.290619 20.8401 1.34399 19.7852 2.54785 19.7852C3.45074 19.7852 0.441101 18.7303 46.0371 38.02C46.94 38.3214 47.5419 39.3763 47.5419 40.1298V61.3786C47.5419 62.5842 46.4885 63.6391 45.2847 63.6391C44.6828 63.6391 44.3818 63.4884 44.2313 63.4884Z" fill="#0066F5"/>
<path d="M78.9925 51.1309C81.0993 48.1169 82.7546 44.048 83.8079 40.2805C83.9584 39.6777 84.5603 39.3763 85.1623 39.527L89.2253 41.034C89.6767 41.1847 89.9777 41.7875 89.8272 42.2396C88.6234 46.4592 86.9681 51.1309 84.7108 54.5971C84.4099 55.0492 83.8079 55.1999 83.3565 54.8984L79.2935 52.6379C78.6916 52.3365 78.5411 51.583 78.9925 51.1309ZM101.113 35.3074H84.8613C84.2594 35.3074 83.8079 34.8553 83.8079 34.2525V9.98968C83.8079 9.38688 84.2594 8.93478 84.8613 8.93478H122.632C123.234 8.93478 123.686 9.38688 123.686 9.98968V34.2525C123.686 34.8553 123.234 35.3074 122.632 35.3074H102.618C105.929 36.9651 109.691 39.3763 112.099 41.6368C112.55 42.0889 112.55 42.6917 112.099 43.1438L108.938 46.1578C108.487 46.4592 107.885 46.6099 107.584 46.1578C105.477 44.048 102.016 41.4861 98.7056 39.527C98.1037 39.2256 97.9532 38.3214 98.5552 37.8693L101.113 35.3074ZM89.9777 19.3331H100.361V14.6614H89.9777V19.3331ZM89.9777 29.5808H100.361V24.7583H89.9777V29.5808ZM109.54 51.4323C111.497 51.4323 112.099 50.8295 112.55 46.7606C112.55 46.0071 113.302 45.555 114.055 45.8564C115.259 46.4592 116.613 46.9113 117.817 47.3634C118.268 47.5141 118.569 47.9662 118.569 48.4183C117.817 55.5013 115.71 57.4604 110.293 57.4604H101.113C93.7397 57.4604 91.934 55.5013 91.934 49.6239V41.4861C91.934 40.8833 92.3854 40.4312 92.9873 40.4312H97.6523C98.2542 40.4312 98.7056 40.8833 98.7056 41.4861V49.4732C98.7056 51.1309 99.1571 51.4323 102.016 51.4323H109.54ZM117.064 14.6614H106.982V19.3331H117.064V14.6614ZM117.064 24.6076H106.982V29.4301H117.064V24.6076ZM122.783 39.3763C125.491 43.1438 128.2 47.6648 129.404 51.2816C129.554 51.7337 129.253 52.3365 128.802 52.4872L124.288 54.4464C123.686 54.7478 123.084 54.4464 122.933 53.8436C121.88 50.5281 119.623 46.0071 117.215 42.2396C116.914 41.6368 117.064 41.034 117.666 40.7326L121.729 39.0749C122.03 38.9242 122.482 39.0749 122.783 39.3763Z" fill="#0066F5"/>
<path d="M150.471 9.08546C149.418 13.0037 148.214 16.7712 146.709 20.388V57.611C146.709 58.2138 146.258 58.6659 145.656 58.6659H141.442C140.841 58.6659 140.389 58.2138 140.389 57.611V32.1426C139.486 33.499 138.433 34.7046 137.53 35.7595C137.079 36.3623 136.176 36.2116 135.875 35.4581C135.122 33.9511 134.219 31.9919 133.467 30.7863C133.166 30.3342 133.316 29.8821 133.617 29.5807C138.433 24.3062 142.195 16.1684 144.302 7.42775C144.452 6.82495 144.904 6.52355 145.505 6.67425L149.869 7.72915C150.321 8.03055 150.622 8.63336 150.471 9.08546ZM169.583 15.5656C168.83 17.9768 168.078 20.388 167.476 22.4978H180.116C180.718 22.4978 181.17 22.9499 181.17 23.5527V57.0082C181.17 57.611 180.718 58.0631 180.116 58.0631H174.548V55.3505H158.898V57.3096C158.898 57.9124 158.447 58.3645 157.845 58.3645H153.782C153.18 58.3645 152.729 57.9124 152.729 57.3096V23.7034C152.729 23.1006 153.18 22.6485 153.782 22.6485H160.855C161.457 20.388 161.758 17.9768 162.058 15.7163H151.525C150.923 15.7163 150.471 15.2642 150.471 14.6614V10.4418C150.471 9.83896 150.923 9.38686 151.525 9.38686H182.073C182.675 9.38686 183.126 9.83896 183.126 10.4418V14.5107C183.126 15.1135 182.675 15.5656 182.073 15.5656H169.583ZM174.699 28.6765H159.049V36.0609H174.699V28.6765ZM174.699 49.3225V42.0889H159.049V49.3225H174.699Z" fill="#0066F5"/>
<path d="M240.159 51.8844V55.6519C240.159 56.2547 239.707 56.7068 239.105 56.7068H190.65C190.048 56.7068 189.597 56.2547 189.597 55.6519V51.8844C189.597 51.2816 190.048 50.8295 190.65 50.8295H196.067V35.3074C195.616 35.4581 195.165 35.7595 194.713 35.9102C194.262 36.0609 193.66 35.9102 193.359 35.4581C192.757 34.4032 191.854 33.0468 191.101 31.9919C190.65 31.3891 190.951 30.6356 191.553 30.3342C196.368 28.8272 202.237 26.1146 205.698 23.7034C205.999 23.402 206.451 23.402 206.902 23.7034L209.761 25.8132C210.363 26.2653 210.363 27.0188 209.761 27.4709C206.3 29.8821 201.334 32.5947 197.121 34.8553H233.236C233.838 34.8553 234.29 35.3074 234.29 35.9102V50.9802H239.406C239.707 50.9802 240.159 51.4323 240.159 51.8844ZM238.353 22.7992H191.252C190.65 22.7992 190.199 22.3471 190.199 21.7443V17.9768C190.199 17.374 190.65 16.9219 191.252 16.9219H203.291C202.237 14.8121 200.582 12.2502 199.077 9.98966C198.776 9.53756 198.927 8.78405 199.528 8.48265L203.291 6.82495C203.742 6.67425 204.193 6.82495 204.494 7.12635C206.451 9.38686 208.256 12.2502 209.31 14.5107C209.611 14.9628 209.31 15.5656 208.858 15.867L206.752 16.9219H223.004L221.198 16.3191C220.596 16.1684 220.295 15.4149 220.596 14.8121C221.95 12.5516 223.606 9.68826 224.659 7.27705C224.809 6.82495 225.411 6.52355 225.863 6.67425L230.377 8.03055C230.979 8.18125 231.28 8.93475 230.979 9.53756C229.324 12.2502 227.518 14.8121 226.013 16.9219H238.353C238.955 16.9219 239.406 17.374 239.406 17.9768V21.7443C239.406 22.3471 238.955 22.7992 238.353 22.7992ZM201.786 50.9802H206.451V40.4312H201.786V50.9802ZM212.47 40.2805V50.8295H217.135V40.2805H212.47ZM223.305 23.5527C228.12 25.2104 234.741 27.7723 238.804 29.7314C239.406 30.0328 239.557 30.7863 239.256 31.2384L236.848 34.7046C236.547 35.1567 235.945 35.3074 235.494 35.006C231.732 33.0468 225.562 30.3342 220.445 28.3751C219.844 28.0737 219.543 27.3202 219.994 26.8681L222.251 24.0048C222.552 23.5527 223.004 23.402 223.305 23.5527ZM223.004 40.2805V50.8295H227.669V40.2805H223.004Z" fill="#0066F5"/>
<path d="M294.332 20.388H274.769V29.5808C274.769 38.02 273.866 50.3774 268.75 58.2139C268.6 58.5153 268.148 58.5153 267.847 58.3646C266.643 57.3097 264.687 56.1041 263.333 55.1999C263.032 55.0492 262.881 54.5971 263.182 54.2957C263.784 53.5421 264.236 52.6379 264.687 51.8844H254.153V55.3506C254.153 55.652 253.852 55.9534 253.551 55.9534H249.338C249.037 55.9534 248.736 55.652 248.736 55.3506V39.0749C248.285 39.6777 247.984 40.1298 247.532 40.7326C247.231 41.1847 246.479 41.034 246.479 40.4312C246.027 38.4721 245.275 35.6088 244.523 33.9511C244.372 33.8004 244.523 33.499 244.523 33.3483C247.833 28.6766 249.94 22.0457 251.294 14.9628H245.576C245.275 14.9628 244.974 14.6614 244.974 14.36V9.68829C244.974 9.38688 245.275 9.08548 245.576 9.08548H265.289C265.59 9.08548 265.891 9.38688 265.891 9.68829V14.5107C265.891 14.8121 265.59 15.1135 265.289 15.1135H257.163C256.411 18.881 255.508 22.7992 254.304 26.416H264.085C264.386 26.416 264.687 26.7175 264.687 27.0189V51.2816C267.847 44.5001 268.148 36.0609 268.148 29.5808V14.6614C268.148 14.36 268.449 14.0586 268.75 14.0586H279.284C278.531 12.5516 277.629 10.8939 276.726 9.38689C276.575 9.08548 276.726 8.63338 277.027 8.48268L281.692 6.67427C281.993 6.52357 282.293 6.67427 282.444 6.97568C283.949 9.23618 285.604 12.0995 286.356 14.0586L285.905 14.2093H294.182C294.483 14.2093 294.783 14.5107 294.783 14.8121V19.9359C294.934 20.0866 294.633 20.388 294.332 20.388ZM259.119 31.992H253.852V46.0071H259.119V31.992Z" fill="#231F20"/>
<path d="M307.875 32.4441C305.919 30.7864 302.458 28.8273 299.599 27.6217C299.298 27.471 299.147 27.0189 299.298 26.7175L302.007 22.7992C302.157 22.4978 302.458 22.4978 302.759 22.4978C305.769 23.7034 309.38 25.5119 311.487 27.1696C311.788 27.3203 311.788 27.7724 311.637 28.0738L308.778 32.4441C308.628 32.7455 308.176 32.7455 307.875 32.4441ZM301.104 52.9394C303.662 48.8704 307.123 42.6917 309.832 36.6637C309.982 36.3623 310.434 36.2116 310.735 36.513L314.798 39.8284C314.948 39.9791 315.099 40.2805 314.948 40.5819C312.54 46.0071 309.531 51.8845 306.822 57.0083C306.672 57.3097 306.22 57.4604 305.919 57.159L301.254 53.6929C300.953 53.5422 300.803 53.0901 301.104 52.9394ZM311.036 17.5247C309.079 15.867 305.618 13.7572 302.609 12.4009C302.308 12.2502 302.157 11.7981 302.308 11.4967L305.167 7.57848C305.317 7.27708 305.618 7.27708 305.919 7.42778C308.929 8.63338 312.691 10.5925 314.798 12.2502C315.099 12.4009 315.099 12.853 314.948 13.1544L311.938 17.5247C311.788 17.6754 311.336 17.6754 311.036 17.5247ZM339.627 51.5831C342.637 51.5831 343.239 50.5281 343.841 45.1029C343.841 44.6508 344.442 44.3494 344.743 44.6508C346.098 45.4043 347.904 46.1578 349.258 46.4592C349.559 46.6099 349.709 46.9113 349.709 47.2127C348.806 55.0492 346.85 57.7618 340.079 57.7618H327.889C320.215 57.7618 317.958 55.652 317.958 47.8155V33.0469L315.249 34.1018C314.948 34.2525 314.647 34.1018 314.497 33.8004L312.39 29.1287C312.239 28.8273 312.39 28.3752 312.691 28.2245L317.807 26.1147V13.0037C317.807 12.7023 318.108 12.4009 318.409 12.4009H323.526C323.826 12.4009 324.127 12.7023 324.127 13.0037V23.5527L329.394 21.4429V7.42778C329.394 7.12638 329.695 6.82498 329.996 6.82498H335.113C335.414 6.82498 335.715 7.12638 335.715 7.42778V19.0317L341.433 16.7712L342.035 16.3191L342.938 15.7163C343.088 15.5656 343.389 15.5656 343.54 15.5656L347.302 17.0726C347.603 17.2233 347.753 17.5247 347.753 17.8261L347.603 18.2782V18.4289C347.603 28.2245 347.452 34.7046 347.151 37.1158C347.001 39.9791 345.947 41.3354 344.142 42.2396C342.637 42.9931 340.379 43.1438 338.423 43.1438C338.122 43.1438 337.821 42.8424 337.821 42.541C337.671 41.034 337.219 39.0749 336.768 37.7186C336.617 37.2665 336.918 36.8144 337.37 36.9651C338.273 36.9651 339.326 36.9651 339.778 36.9651C340.53 36.9651 340.981 36.8144 341.132 35.7595C341.282 34.7046 341.433 31.0878 341.433 23.7034L335.865 25.964V44.9522C335.865 45.2536 335.564 45.555 335.263 45.555H330.147C329.846 45.555 329.545 45.2536 329.545 44.9522V28.2245L324.278 30.3343V47.8155C324.278 51.131 324.88 51.5831 328.341 51.5831H339.627Z" fill="#231F20"/>
</svg>
