<svg width="100" height="100" viewBox="0 0 100 100" fill="none" xmlns="http://www.w3.org/2000/svg">
<path fill-rule="evenodd" clip-rule="evenodd" d="M0 7.5368e-07V100C100 100 0 100 100 100V7.5368e-07C0 3.87013e-06 100 -1.98813e-06 0 7.5368e-07Z" fill="#086CFF"/>
<path fill-rule="evenodd" clip-rule="evenodd" d="M41.1615 39.6686C44.7785 41.1965 50.6483 43.6769 60.2306 47.6978C60.7287 47.9064 61.2928 47.9068 61.7906 47.6974L65.5654 46.106C66.1212 45.8715 66.513 45.3232 66.513 44.6838V29.686C66.513 28.8646 65.8413 28.2785 65.0165 28.3338C64.2757 28.3834 66.8744 27.4178 41.1651 38.2099C40.5167 38.4821 40.5135 39.3949 41.1615 39.6686Z" fill="white"/>
<path fill-rule="evenodd" clip-rule="evenodd" d="M64.2133 71.5161L34.4354 58.9788C33.8785 58.7444 33.4871 58.1968 33.4871 57.5582V42.7519C33.4871 41.9 34.1831 41.2098 35.0427 41.2098C35.6372 41.2098 33.609 40.5191 65.4883 53.8738C66.1343 54.1011 66.5645 54.7918 66.5065 55.3675L66.5081 55.3699L66.4694 70.1281C66.4694 70.9801 65.7729 71.6703 64.9134 71.6703C64.5004 71.6703 64.2801 71.5229 64.1889 71.4939" fill="white"/>
</svg>
