<svg width="350" height="64" viewBox="0 0 350 64" fill="none" xmlns="http://www.w3.org/2000/svg">
<path d="M11.2758 16.859C16.3922 19.1195 24.8192 22.5856 38.513 28.463C39.2655 28.7644 40.0179 28.7644 40.7703 28.463L46.1876 26.2025C46.94 25.9011 47.542 25.1476 47.542 24.0926V2.54247C47.542 1.33686 46.4886 0.583359 45.4352 0.583359C44.3818 0.583359 48.1439 -0.772947 11.2758 14.7492C10.3729 15.2013 10.3729 16.5576 11.2758 16.859Z" fill="white"/>
<path d="M44.2314 62.8227L1.64499 44.7387C0.892577 44.4373 0.290649 43.6838 0.290649 42.6289V21.3801C0.290649 20.1745 1.34402 19.1196 2.54788 19.1196C3.45077 19.1196 0.441132 18.0647 46.0371 37.3543C46.94 37.6557 47.542 38.7106 47.542 39.4641V60.7129C47.542 61.9185 46.4886 62.9734 45.2847 62.9734C44.6828 62.9734 44.3818 62.8227 44.2314 62.8227Z" fill="white"/>
<path d="M78.9925 50.4653C81.0993 47.4513 82.7546 43.3824 83.808 39.6149C83.9584 39.0121 84.5604 38.7107 85.1623 38.8614L89.2253 40.3684C89.6767 40.5191 89.9777 41.1219 89.8272 41.574C88.6234 45.7936 86.9681 50.4653 84.7108 53.9314C84.4099 54.3835 83.808 54.5342 83.3565 54.2328L79.2935 51.9723C78.6916 51.6709 78.5411 50.9174 78.9925 50.4653ZM101.113 34.6418H84.8613C84.2594 34.6418 83.808 34.1897 83.808 33.5869V9.32407C83.808 8.72127 84.2594 8.26917 84.8613 8.26917H122.632C123.234 8.26917 123.686 8.72127 123.686 9.32407V33.5869C123.686 34.1897 123.234 34.6418 122.632 34.6418H102.618C105.929 36.2995 109.691 38.7107 112.099 40.9712C112.55 41.4233 112.55 42.0261 112.099 42.4782L108.938 45.4922C108.487 45.7936 107.885 45.9443 107.584 45.4922C105.477 43.3824 102.016 40.8205 98.7057 38.8614C98.1037 38.56 97.9532 37.6558 98.5552 37.2037L101.113 34.6418ZM89.9777 18.6675H100.361V13.9958H89.9777V18.6675ZM89.9777 28.9151H100.361V24.0927H89.9777V28.9151ZM109.54 50.7667C111.497 50.7667 112.099 50.1639 112.55 46.095C112.55 45.3415 113.302 44.8894 114.055 45.1908C115.259 45.7936 116.613 46.2457 117.817 46.6978C118.268 46.8485 118.569 47.3006 118.569 47.7527C117.817 54.8356 115.71 56.7948 110.293 56.7948H101.113C93.7398 56.7948 91.934 54.8356 91.934 48.9583V40.8205C91.934 40.2177 92.3854 39.7656 92.9873 39.7656H97.6523C98.2542 39.7656 98.7057 40.2177 98.7057 40.8205V48.8076C98.7057 50.4653 99.1571 50.7667 102.016 50.7667H109.54ZM117.064 13.9958H106.982V18.6675H117.064V13.9958ZM117.064 23.942H106.982V28.7644H117.064V23.942ZM122.783 38.7107C125.491 42.4782 128.2 46.9992 129.404 50.616C129.554 51.0681 129.253 51.6709 128.802 51.8216L124.288 53.7807C123.686 54.0821 123.084 53.7807 122.933 53.1779C121.88 49.8625 119.623 45.3415 117.215 41.574C116.914 40.9712 117.064 40.3684 117.666 40.067L121.729 38.4093C122.03 38.2586 122.482 38.4093 122.783 38.7107Z" fill="white"/>
<path d="M150.471 8.4198C149.418 12.338 148.214 16.1055 146.709 19.7223V56.9454C146.709 57.5482 146.258 58.0003 145.656 58.0003H141.443C140.841 58.0003 140.389 57.5482 140.389 56.9454V31.477C139.486 32.8333 138.433 34.0389 137.53 35.0938C137.079 35.6966 136.176 35.5459 135.875 34.7924C135.122 33.2854 134.219 31.3263 133.467 30.1207C133.166 29.6686 133.316 29.2165 133.617 28.9151C138.433 23.6406 142.195 15.5027 144.302 6.76209C144.452 6.15929 144.904 5.85789 145.506 6.00859L149.869 7.06349C150.321 7.36489 150.622 7.9677 150.471 8.4198ZM169.583 14.8999C168.83 17.3111 168.078 19.7223 167.476 21.8321H180.116C180.718 21.8321 181.17 22.2843 181.17 22.8871V56.3426C181.17 56.9454 180.718 57.3975 180.116 57.3975H174.549V54.6849H158.898V56.644C158.898 57.2468 158.447 57.6989 157.845 57.6989H153.782C153.18 57.6989 152.729 57.2468 152.729 56.644V23.0378C152.729 22.4349 153.18 21.9828 153.782 21.9828H160.855C161.457 19.7223 161.758 17.3111 162.059 15.0506H151.525C150.923 15.0506 150.471 14.5985 150.471 13.9957V9.7761C150.471 9.1733 150.923 8.7212 151.525 8.7212H182.073C182.675 8.7212 183.126 9.1733 183.126 9.7761V13.845C183.126 14.4478 182.675 14.8999 182.073 14.8999H169.583ZM174.699 28.0109H159.049V35.3952H174.699V28.0109ZM174.699 48.6568V41.4232H159.049V48.6568H174.699Z" fill="white"/>
<path d="M240.159 51.2188V54.9863C240.159 55.5891 239.707 56.0412 239.105 56.0412H190.65C190.048 56.0412 189.597 55.5891 189.597 54.9863V51.2188C189.597 50.616 190.048 50.1639 190.65 50.1639H196.067V34.6417C195.616 34.7924 195.165 35.0938 194.713 35.2445C194.262 35.3952 193.66 35.2445 193.359 34.7924C192.757 33.7375 191.854 32.3812 191.102 31.3263C190.65 30.7235 190.951 29.97 191.553 29.6686C196.368 28.1616 202.237 25.449 205.698 23.0378C205.999 22.7364 206.451 22.7364 206.902 23.0378L209.761 25.1476C210.363 25.5997 210.363 26.3532 209.761 26.8053C206.3 29.2165 201.334 31.9291 197.121 34.1896H233.236C233.838 34.1896 234.29 34.6417 234.29 35.2445V50.3146H239.406C239.707 50.3146 240.159 50.7667 240.159 51.2188ZM238.353 22.1336H191.252C190.65 22.1336 190.199 21.6815 190.199 21.0787V17.3112C190.199 16.7084 190.65 16.2563 191.252 16.2563H203.291C202.237 14.1465 200.582 11.5845 199.077 9.32404C198.776 8.87193 198.927 8.11843 199.528 7.81703L203.291 6.15932C203.742 6.00862 204.193 6.15932 204.494 6.46073C206.451 8.72123 208.256 11.5845 209.31 13.8451C209.611 14.2972 209.31 14.9 208.858 15.2014L206.752 16.2563H223.004L221.198 15.6535C220.596 15.5028 220.295 14.7493 220.596 14.1465C221.95 11.8859 223.606 9.02263 224.659 6.61143C224.809 6.15932 225.411 5.85792 225.863 6.00862L230.377 7.36493C230.979 7.51563 231.28 8.26913 230.979 8.87193C229.324 11.5845 227.518 14.1465 226.013 16.2563H238.353C238.955 16.2563 239.406 16.7084 239.406 17.3112V21.0787C239.406 21.6815 238.955 22.1336 238.353 22.1336ZM201.786 50.3146H206.451V39.7656H201.786V50.3146ZM212.47 39.6148V50.1639H217.135V39.6148H212.47ZM223.305 22.8871C228.12 24.5448 234.741 27.1067 238.804 29.0658C239.406 29.3672 239.557 30.1207 239.256 30.5728L236.848 34.0389C236.547 34.491 235.945 34.6417 235.494 34.3403C231.732 32.3812 225.562 29.6686 220.445 27.7095C219.844 27.4081 219.543 26.6546 219.994 26.2025L222.251 23.3392C222.552 22.8871 223.004 22.7364 223.305 22.8871ZM223.004 39.6148V50.1639H227.669V39.6148H223.004Z" fill="white"/>
<path d="M294.332 19.7224H274.769V28.9151C274.769 37.3544 273.867 49.7118 268.75 57.5482C268.6 57.8496 268.148 57.8496 267.847 57.6989C266.643 56.644 264.687 55.4384 263.333 54.5342C263.032 54.3835 262.881 53.9314 263.182 53.63C263.784 52.8765 264.236 51.9723 264.687 51.2188H254.153V54.6849C254.153 54.9863 253.852 55.2877 253.551 55.2877H249.338C249.037 55.2877 248.736 54.9863 248.736 54.6849V38.4093C248.285 39.0121 247.984 39.4642 247.532 40.067C247.231 40.5191 246.479 40.3684 246.479 39.7656C246.027 37.8065 245.275 34.9432 244.523 33.2854C244.372 33.1347 244.523 32.8333 244.523 32.6826C247.833 28.0109 249.94 21.3801 251.294 14.2972H245.576C245.275 14.2972 244.974 13.9958 244.974 13.6944V9.02266C244.974 8.72125 245.275 8.41985 245.576 8.41985H265.289C265.59 8.41985 265.891 8.72125 265.891 9.02266V13.8451C265.891 14.1465 265.59 14.4479 265.289 14.4479H257.163C256.411 18.2154 255.508 22.1336 254.304 25.7504H264.085C264.386 25.7504 264.687 26.0518 264.687 26.3532V50.616C267.847 43.8345 268.148 35.3953 268.148 28.9151V13.9958C268.148 13.6944 268.449 13.393 268.75 13.393H279.284C278.531 11.886 277.629 10.2283 276.726 8.72125C276.575 8.41985 276.726 7.96775 277.027 7.81705L281.692 6.00864C281.993 5.85794 282.293 6.00864 282.444 6.31005C283.949 8.57055 285.604 11.4339 286.357 13.393L285.905 13.5437H294.182C294.483 13.5437 294.783 13.8451 294.783 14.1465V19.2703C294.934 19.421 294.633 19.7224 294.332 19.7224ZM259.119 31.3263H253.852V45.3415H259.119V31.3263Z" fill="white"/>
<path d="M307.875 31.7785C305.919 30.1208 302.458 28.1616 299.599 26.956C299.298 26.8053 299.147 26.3532 299.298 26.0518L302.007 22.1336C302.157 21.8322 302.458 21.8322 302.759 21.8322C305.769 23.0378 309.38 24.8462 311.487 26.5039C311.788 26.6546 311.788 27.1067 311.637 27.4081L308.778 31.7785C308.628 32.0799 308.176 32.0799 307.875 31.7785ZM301.104 52.2737C303.662 48.2048 307.123 42.0261 309.832 35.9981C309.982 35.6967 310.434 35.546 310.735 35.8474L314.798 39.1628C314.948 39.3135 315.099 39.6149 314.948 39.9163C312.54 45.3415 309.531 51.2188 306.822 56.3427C306.672 56.6441 306.22 56.7948 305.919 56.4934L301.254 53.0272C300.953 52.8765 300.803 52.4244 301.104 52.2737ZM311.036 16.8591C309.079 15.2014 305.618 13.0916 302.609 11.7353C302.308 11.5846 302.157 11.1325 302.308 10.8311L305.167 6.91287C305.317 6.61146 305.618 6.61146 305.919 6.76216C308.929 7.96777 312.691 9.92688 314.798 11.5846C315.099 11.7353 315.099 12.1874 314.948 12.4888L311.938 16.8591C311.788 17.0098 311.336 17.0098 311.036 16.8591ZM339.627 50.9174C342.637 50.9174 343.239 49.8625 343.841 44.4373C343.841 43.9852 344.442 43.6838 344.743 43.9852C346.098 44.7387 347.904 45.4922 349.258 45.7936C349.559 45.9443 349.709 46.2457 349.709 46.5471C348.806 54.3835 346.85 57.0962 340.079 57.0962H327.889C320.215 57.0962 317.958 54.9864 317.958 47.1499V32.3813L315.249 33.4362C314.948 33.5869 314.647 33.4362 314.497 33.1348L312.39 28.4631C312.239 28.1616 312.39 27.7095 312.691 27.5588L317.807 25.449V12.3381C317.807 12.0367 318.108 11.7353 318.409 11.7353H323.526C323.826 11.7353 324.127 12.0367 324.127 12.3381V22.8871L329.394 20.7773V6.76216C329.394 6.46076 329.695 6.15936 329.996 6.15936H335.113C335.414 6.15936 335.715 6.46076 335.715 6.76216V18.3661L341.433 16.1056L342.035 15.6535L342.938 15.0507C343.088 14.9 343.389 14.9 343.54 14.9L347.302 16.407C347.603 16.5577 347.753 16.8591 347.753 17.1605L347.603 17.6126V17.7633C347.603 27.5588 347.452 34.039 347.151 36.4502C347.001 39.3135 345.947 40.6698 344.142 41.574C342.637 42.3275 340.379 42.4782 338.423 42.4782C338.122 42.4782 337.821 42.1768 337.821 41.8754C337.671 40.3684 337.219 38.4093 336.768 37.053C336.617 36.6009 336.918 36.1488 337.37 36.2995C338.273 36.2995 339.326 36.2995 339.778 36.2995C340.53 36.2995 340.981 36.1488 341.132 35.0939C341.282 34.039 341.433 30.4222 341.433 23.0378L335.865 25.2983V44.2866C335.865 44.588 335.564 44.8894 335.263 44.8894H330.147C329.846 44.8894 329.545 44.588 329.545 44.2866V27.5588L324.278 29.6687V47.1499C324.278 50.4653 324.88 50.9174 328.341 50.9174H339.627Z" fill="white"/>
</svg>
